%TF.GenerationSoftware,KiCad,Pcbnew,8.0.3*%
%TF.CreationDate,2024-10-09T18:17:50-05:00*%
%TF.ProjectId,udb-s,7564622d-732e-46b6-9963-61645f706362,rev?*%
%TF.SameCoordinates,Original*%
%TF.FileFunction,Legend,Top*%
%TF.FilePolarity,Positive*%
%FSLAX46Y46*%
G04 Gerber Fmt 4.6, Leading zero omitted, Abs format (unit mm)*
G04 Created by KiCad (PCBNEW 8.0.3) date 2024-10-09 18:17:50*
%MOMM*%
%LPD*%
G01*
G04 APERTURE LIST*
G04 Aperture macros list*
%AMRoundRect*
0 Rectangle with rounded corners*
0 $1 Rounding radius*
0 $2 $3 $4 $5 $6 $7 $8 $9 X,Y pos of 4 corners*
0 Add a 4 corners polygon primitive as box body*
4,1,4,$2,$3,$4,$5,$6,$7,$8,$9,$2,$3,0*
0 Add four circle primitives for the rounded corners*
1,1,$1+$1,$2,$3*
1,1,$1+$1,$4,$5*
1,1,$1+$1,$6,$7*
1,1,$1+$1,$8,$9*
0 Add four rect primitives between the rounded corners*
20,1,$1+$1,$2,$3,$4,$5,0*
20,1,$1+$1,$4,$5,$6,$7,0*
20,1,$1+$1,$6,$7,$8,$9,0*
20,1,$1+$1,$8,$9,$2,$3,0*%
%AMOutline4P*
0 Free polygon, 4 corners , with rotation*
0 The origin of the aperture is its center*
0 number of corners: always 4*
0 $1 to $8 corner X, Y*
0 $9 Rotation angle, in degrees counterclockwise*
0 create outline with 4 corners*
4,1,4,$1,$2,$3,$4,$5,$6,$7,$8,$1,$2,$9*%
G04 Aperture macros list end*
%ADD10C,0.100000*%
%ADD11C,0.120000*%
%ADD12C,0.400000*%
%ADD13RoundRect,0.243750X-0.243750X-0.456250X0.243750X-0.456250X0.243750X0.456250X-0.243750X0.456250X0*%
%ADD14RoundRect,0.218750X-0.381250X0.218750X-0.381250X-0.218750X0.381250X-0.218750X0.381250X0.218750X0*%
%ADD15RoundRect,0.135000X-0.185000X0.135000X-0.185000X-0.135000X0.185000X-0.135000X0.185000X0.135000X0*%
%ADD16RoundRect,0.125000X-0.000010X-0.150000X0.000010X-0.150000X0.000010X0.150000X-0.000010X0.150000X0*%
%ADD17R,0.250000X0.550000*%
%ADD18R,0.300000X0.550000*%
%ADD19C,0.650000*%
%ADD20RoundRect,0.060000X0.240000X0.665000X-0.240000X0.665000X-0.240000X-0.665000X0.240000X-0.665000X0*%
%ADD21RoundRect,0.060000X0.090000X0.665000X-0.090000X0.665000X-0.090000X-0.665000X0.090000X-0.665000X0*%
%ADD22O,1.100000X2.200000*%
%ADD23O,1.300000X1.700000*%
%ADD24R,0.600000X0.700000*%
%ADD25R,1.680000X1.680000*%
%ADD26RoundRect,0.135000X0.135000X0.185000X-0.135000X0.185000X-0.135000X-0.185000X0.135000X-0.185000X0*%
%ADD27Outline4P,-0.840000X-0.840000X0.840000X-0.840000X0.840000X0.840000X-0.840000X0.840000X180.000000*%
G04 APERTURE END LIST*
D10*
X126317693Y-79533609D02*
X126317693Y-79890752D01*
X126317693Y-79890752D02*
X126293884Y-79962180D01*
X126293884Y-79962180D02*
X126246265Y-80009800D01*
X126246265Y-80009800D02*
X126174836Y-80033609D01*
X126174836Y-80033609D02*
X126127217Y-80033609D01*
X126793883Y-80033609D02*
X126555788Y-80033609D01*
X126555788Y-80033609D02*
X126555788Y-79533609D01*
X127246264Y-79985990D02*
X127222455Y-80009800D01*
X127222455Y-80009800D02*
X127151026Y-80033609D01*
X127151026Y-80033609D02*
X127103407Y-80033609D01*
X127103407Y-80033609D02*
X127031979Y-80009800D01*
X127031979Y-80009800D02*
X126984360Y-79962180D01*
X126984360Y-79962180D02*
X126960550Y-79914561D01*
X126960550Y-79914561D02*
X126936741Y-79819323D01*
X126936741Y-79819323D02*
X126936741Y-79747895D01*
X126936741Y-79747895D02*
X126960550Y-79652657D01*
X126960550Y-79652657D02*
X126984360Y-79605038D01*
X126984360Y-79605038D02*
X127031979Y-79557419D01*
X127031979Y-79557419D02*
X127103407Y-79533609D01*
X127103407Y-79533609D02*
X127151026Y-79533609D01*
X127151026Y-79533609D02*
X127222455Y-79557419D01*
X127222455Y-79557419D02*
X127246264Y-79581228D01*
X127603407Y-79533609D02*
X127603407Y-79890752D01*
X127603407Y-79890752D02*
X127579598Y-79962180D01*
X127579598Y-79962180D02*
X127531979Y-80009800D01*
X127531979Y-80009800D02*
X127460550Y-80033609D01*
X127460550Y-80033609D02*
X127412931Y-80033609D01*
X128079597Y-80033609D02*
X127841502Y-80033609D01*
X127841502Y-80033609D02*
X127841502Y-79533609D01*
X128531978Y-79985990D02*
X128508169Y-80009800D01*
X128508169Y-80009800D02*
X128436740Y-80033609D01*
X128436740Y-80033609D02*
X128389121Y-80033609D01*
X128389121Y-80033609D02*
X128317693Y-80009800D01*
X128317693Y-80009800D02*
X128270074Y-79962180D01*
X128270074Y-79962180D02*
X128246264Y-79914561D01*
X128246264Y-79914561D02*
X128222455Y-79819323D01*
X128222455Y-79819323D02*
X128222455Y-79747895D01*
X128222455Y-79747895D02*
X128246264Y-79652657D01*
X128246264Y-79652657D02*
X128270074Y-79605038D01*
X128270074Y-79605038D02*
X128317693Y-79557419D01*
X128317693Y-79557419D02*
X128389121Y-79533609D01*
X128389121Y-79533609D02*
X128436740Y-79533609D01*
X128436740Y-79533609D02*
X128508169Y-79557419D01*
X128508169Y-79557419D02*
X128531978Y-79581228D01*
X128889121Y-79533609D02*
X128889121Y-79890752D01*
X128889121Y-79890752D02*
X128865312Y-79962180D01*
X128865312Y-79962180D02*
X128817693Y-80009800D01*
X128817693Y-80009800D02*
X128746264Y-80033609D01*
X128746264Y-80033609D02*
X128698645Y-80033609D01*
X129365311Y-80033609D02*
X129127216Y-80033609D01*
X129127216Y-80033609D02*
X129127216Y-79533609D01*
X129817692Y-79985990D02*
X129793883Y-80009800D01*
X129793883Y-80009800D02*
X129722454Y-80033609D01*
X129722454Y-80033609D02*
X129674835Y-80033609D01*
X129674835Y-80033609D02*
X129603407Y-80009800D01*
X129603407Y-80009800D02*
X129555788Y-79962180D01*
X129555788Y-79962180D02*
X129531978Y-79914561D01*
X129531978Y-79914561D02*
X129508169Y-79819323D01*
X129508169Y-79819323D02*
X129508169Y-79747895D01*
X129508169Y-79747895D02*
X129531978Y-79652657D01*
X129531978Y-79652657D02*
X129555788Y-79605038D01*
X129555788Y-79605038D02*
X129603407Y-79557419D01*
X129603407Y-79557419D02*
X129674835Y-79533609D01*
X129674835Y-79533609D02*
X129722454Y-79533609D01*
X129722454Y-79533609D02*
X129793883Y-79557419D01*
X129793883Y-79557419D02*
X129817692Y-79581228D01*
X130174835Y-79533609D02*
X130174835Y-79890752D01*
X130174835Y-79890752D02*
X130151026Y-79962180D01*
X130151026Y-79962180D02*
X130103407Y-80009800D01*
X130103407Y-80009800D02*
X130031978Y-80033609D01*
X130031978Y-80033609D02*
X129984359Y-80033609D01*
X130651025Y-80033609D02*
X130412930Y-80033609D01*
X130412930Y-80033609D02*
X130412930Y-79533609D01*
X131103406Y-79985990D02*
X131079597Y-80009800D01*
X131079597Y-80009800D02*
X131008168Y-80033609D01*
X131008168Y-80033609D02*
X130960549Y-80033609D01*
X130960549Y-80033609D02*
X130889121Y-80009800D01*
X130889121Y-80009800D02*
X130841502Y-79962180D01*
X130841502Y-79962180D02*
X130817692Y-79914561D01*
X130817692Y-79914561D02*
X130793883Y-79819323D01*
X130793883Y-79819323D02*
X130793883Y-79747895D01*
X130793883Y-79747895D02*
X130817692Y-79652657D01*
X130817692Y-79652657D02*
X130841502Y-79605038D01*
X130841502Y-79605038D02*
X130889121Y-79557419D01*
X130889121Y-79557419D02*
X130960549Y-79533609D01*
X130960549Y-79533609D02*
X131008168Y-79533609D01*
X131008168Y-79533609D02*
X131079597Y-79557419D01*
X131079597Y-79557419D02*
X131103406Y-79581228D01*
X131460549Y-79533609D02*
X131460549Y-79890752D01*
X131460549Y-79890752D02*
X131436740Y-79962180D01*
X131436740Y-79962180D02*
X131389121Y-80009800D01*
X131389121Y-80009800D02*
X131317692Y-80033609D01*
X131317692Y-80033609D02*
X131270073Y-80033609D01*
X131936739Y-80033609D02*
X131698644Y-80033609D01*
X131698644Y-80033609D02*
X131698644Y-79533609D01*
X132389120Y-79985990D02*
X132365311Y-80009800D01*
X132365311Y-80009800D02*
X132293882Y-80033609D01*
X132293882Y-80033609D02*
X132246263Y-80033609D01*
X132246263Y-80033609D02*
X132174835Y-80009800D01*
X132174835Y-80009800D02*
X132127216Y-79962180D01*
X132127216Y-79962180D02*
X132103406Y-79914561D01*
X132103406Y-79914561D02*
X132079597Y-79819323D01*
X132079597Y-79819323D02*
X132079597Y-79747895D01*
X132079597Y-79747895D02*
X132103406Y-79652657D01*
X132103406Y-79652657D02*
X132127216Y-79605038D01*
X132127216Y-79605038D02*
X132174835Y-79557419D01*
X132174835Y-79557419D02*
X132246263Y-79533609D01*
X132246263Y-79533609D02*
X132293882Y-79533609D01*
X132293882Y-79533609D02*
X132365311Y-79557419D01*
X132365311Y-79557419D02*
X132389120Y-79581228D01*
D11*
%TO.C,F1*%
X130401422Y-89710000D02*
X130918578Y-89710000D01*
X130401422Y-91130000D02*
X130918578Y-91130000D01*
%TO.C,FB1*%
X124920000Y-87370378D02*
X124920000Y-88169622D01*
X126040000Y-87370378D02*
X126040000Y-88169622D01*
%TO.C,R2*%
X126720000Y-87116359D02*
X126720000Y-87423641D01*
X127480000Y-87116359D02*
X127480000Y-87423641D01*
D12*
%TO.C,U1*%
X128290001Y-88780000D02*
X128290001Y-88780000D01*
X128290001Y-88780000D01*
X128290001Y-88780000D01*
X128290001Y-88780000D01*
X128290001Y-88780000D01*
X128290001Y-88780001D01*
X128290001Y-88780001D01*
X128290001Y-88780001D01*
X128290001Y-88780001D01*
X128290001Y-88780001D01*
X128290001Y-88780001D01*
X128290001Y-88780001D01*
X128290000Y-88780001D01*
X128290000Y-88780001D01*
X128290000Y-88780001D01*
X128290000Y-88780001D01*
X128290000Y-88780001D01*
X128290000Y-88780001D01*
X128290000Y-88780001D01*
X128290000Y-88780001D01*
X128290000Y-88780001D01*
X128290000Y-88780001D01*
X128290000Y-88780001D01*
X128290000Y-88780001D01*
X128289999Y-88780001D01*
X128289999Y-88780001D01*
X128289999Y-88780001D01*
X128289999Y-88780001D01*
X128289999Y-88780001D01*
X128289999Y-88780001D01*
X128289999Y-88780000D01*
X128289999Y-88780000D01*
X128289999Y-88780000D01*
X128289999Y-88780000D01*
X128289999Y-88780000D01*
X128289999Y-88780000D01*
X128289999Y-88780000D02*
X128289999Y-88780000D01*
X128289999Y-88780000D01*
X128289999Y-88780000D01*
X128289999Y-88780000D01*
X128289999Y-88780000D01*
X128289999Y-88780000D01*
X128289999Y-88779999D01*
X128289999Y-88779999D01*
X128289999Y-88779999D01*
X128289999Y-88779999D01*
X128289999Y-88779999D01*
X128290000Y-88779999D01*
X128290000Y-88779999D01*
X128290000Y-88779999D01*
X128290000Y-88779999D01*
X128290000Y-88779999D01*
X128290000Y-88779999D01*
X128290000Y-88779999D01*
X128290000Y-88779999D01*
X128290000Y-88779999D01*
X128290000Y-88779999D01*
X128290000Y-88779999D01*
X128290000Y-88779999D01*
X128290001Y-88779999D01*
X128290001Y-88779999D01*
X128290001Y-88779999D01*
X128290001Y-88779999D01*
X128290001Y-88779999D01*
X128290001Y-88779999D01*
X128290001Y-88780000D01*
X128290001Y-88780000D01*
X128290001Y-88780000D01*
X128290001Y-88780000D01*
X128290001Y-88780000D01*
X128290001Y-88780000D01*
X128290001Y-88780000D01*
D11*
%TO.C,D1*%
X125050000Y-89720000D02*
X126900000Y-89720000D01*
X125050000Y-90920000D02*
X126900000Y-90920000D01*
X126900000Y-90920000D02*
X126900000Y-89720000D01*
%TO.C,R1*%
X133093641Y-86340000D02*
X132786359Y-86340000D01*
X133093641Y-87100000D02*
X132786359Y-87100000D01*
%TD*%
%LPC*%
D13*
%TO.C,F1*%
X129722500Y-90420000D03*
X131597500Y-90420000D03*
%TD*%
D14*
%TO.C,FB1*%
X125480000Y-86707500D03*
X125480000Y-88832500D03*
%TD*%
D15*
%TO.C,R2*%
X127100000Y-86760000D03*
X127100000Y-87780000D03*
%TD*%
D16*
%TO.C,U1*%
X128290000Y-88165000D03*
D17*
X128790000Y-88165000D03*
D18*
X129290000Y-88165000D03*
D17*
X129790000Y-88165000D03*
X130290000Y-88165000D03*
X130290000Y-87395000D03*
X129790000Y-87395000D03*
D18*
X129290000Y-87395000D03*
D17*
X128790000Y-87395000D03*
X128290000Y-87395000D03*
%TD*%
D19*
%TO.C,J1*%
X132176000Y-83113500D03*
X126396000Y-83113500D03*
D20*
X132511000Y-84558500D03*
X131736000Y-84558500D03*
D21*
X130536000Y-84558500D03*
X129536000Y-84558500D03*
X129036000Y-84558500D03*
X128036000Y-84558500D03*
D20*
X126061000Y-84558500D03*
X126836000Y-84558500D03*
D21*
X127536000Y-84558500D03*
X128536000Y-84558500D03*
X130036000Y-84558500D03*
X131036000Y-84558500D03*
D22*
X133606000Y-83643500D03*
D23*
X133606000Y-79463500D03*
D22*
X124966000Y-83643500D03*
D23*
X124966000Y-79463500D03*
%TD*%
D24*
%TO.C,D1*%
X126450000Y-90320000D03*
X125050000Y-90320000D03*
%TD*%
D25*
%TO.C,J3*%
X122790000Y-83190000D03*
X122790000Y-85740000D03*
X122790000Y-88275000D03*
X122790000Y-90810000D03*
%TD*%
D26*
%TO.C,R1*%
X133450000Y-86720000D03*
X132430000Y-86720000D03*
%TD*%
D27*
%TO.C,J2*%
X135800000Y-90830000D03*
X135800000Y-88280000D03*
D25*
X135800000Y-85745000D03*
X135800000Y-83210000D03*
%TD*%
%LPD*%
M02*
