%TF.GenerationSoftware,KiCad,Pcbnew,8.0.2*%
%TF.CreationDate,2024-05-21T21:15:40-05:00*%
%TF.ProjectId,udb-s,7564622d-732e-46b6-9963-61645f706362,rev?*%
%TF.SameCoordinates,Original*%
%TF.FileFunction,Legend,Bot*%
%TF.FilePolarity,Positive*%
%FSLAX46Y46*%
G04 Gerber Fmt 4.6, Leading zero omitted, Abs format (unit mm)*
G04 Created by KiCad (PCBNEW 8.0.2) date 2024-05-21 21:15:40*
%MOMM*%
%LPD*%
G01*
G04 APERTURE LIST*
G04 Aperture macros list*
%AMOutline4P*
0 Free polygon, 4 corners , with rotation*
0 The origin of the aperture is its center*
0 number of corners: always 4*
0 $1 to $8 corner X, Y*
0 $9 Rotation angle, in degrees counterclockwise*
0 create outline with 4 corners*
4,1,4,$1,$2,$3,$4,$5,$6,$7,$8,$1,$2,$9*%
G04 Aperture macros list end*
%ADD10C,0.150000*%
%ADD11C,0.100000*%
%ADD12C,0.650000*%
%ADD13O,1.100000X2.200000*%
%ADD14O,1.300000X1.700000*%
%ADD15R,1.680000X1.680000*%
%ADD16Outline4P,-0.840000X-0.840000X0.840000X-0.840000X0.840000X0.840000X-0.840000X0.840000X180.000000*%
G04 APERTURE END LIST*
D10*
G36*
X134473361Y-88736313D02*
G01*
X134330090Y-88739379D01*
X134328842Y-88738668D01*
X134208408Y-88702739D01*
X134134126Y-88633472D01*
X134134112Y-88633420D01*
X134092394Y-88558108D01*
X134092172Y-88553533D01*
X134045803Y-88386215D01*
X134046792Y-88381247D01*
X134042769Y-88260356D01*
X134044553Y-88256580D01*
X134082492Y-88086609D01*
X134086493Y-88081455D01*
X134120808Y-88004909D01*
X134195119Y-87925217D01*
X134304765Y-87884747D01*
X134305125Y-87884819D01*
X134468616Y-87881320D01*
X134473361Y-88736313D01*
G37*
G36*
X134729331Y-88995930D02*
G01*
X132600914Y-88995930D01*
X132600914Y-88400165D01*
X132712025Y-88400165D01*
X132712025Y-88457567D01*
X132752615Y-88498157D01*
X132781316Y-88503866D01*
X133090544Y-88501633D01*
X133092977Y-88838520D01*
X133133567Y-88879110D01*
X133190969Y-88879110D01*
X133231559Y-88838520D01*
X133237268Y-88809819D01*
X133235035Y-88500589D01*
X133571921Y-88498157D01*
X133612511Y-88457567D01*
X133612511Y-88400165D01*
X133571921Y-88359575D01*
X133543220Y-88353866D01*
X133233991Y-88356098D01*
X133233141Y-88238390D01*
X133896792Y-88238390D01*
X133900990Y-88364571D01*
X133897609Y-88370208D01*
X133899031Y-88399437D01*
X133946592Y-88571060D01*
X133944600Y-88577040D01*
X133952329Y-88605264D01*
X133997739Y-88687241D01*
X133997739Y-88695662D01*
X134013997Y-88719994D01*
X134107108Y-88806819D01*
X134113128Y-88818859D01*
X134130857Y-88828965D01*
X134133566Y-88831491D01*
X134135288Y-88831491D01*
X134138551Y-88833351D01*
X134269828Y-88872514D01*
X134276424Y-88879110D01*
X134305125Y-88884819D01*
X134571921Y-88879110D01*
X134612511Y-88838520D01*
X134618220Y-88809819D01*
X134612511Y-87781118D01*
X134571921Y-87740528D01*
X134543220Y-87734819D01*
X134319632Y-87739603D01*
X134310441Y-87735008D01*
X134281407Y-87738668D01*
X134147352Y-87788147D01*
X134133567Y-87788147D01*
X134116554Y-87799514D01*
X134113128Y-87800779D01*
X134112358Y-87802317D01*
X134109235Y-87804405D01*
X134026478Y-87893154D01*
X134017890Y-87896017D01*
X133999948Y-87919135D01*
X133997814Y-87923893D01*
X133997739Y-87923975D01*
X133997739Y-87924062D01*
X133963366Y-88000734D01*
X133959150Y-88003265D01*
X133946650Y-88029724D01*
X133907622Y-88204567D01*
X133902501Y-88209689D01*
X133896792Y-88238390D01*
X133233141Y-88238390D01*
X133231559Y-88019213D01*
X133190969Y-87978623D01*
X133133567Y-87978623D01*
X133092977Y-88019213D01*
X133087268Y-88047914D01*
X133089500Y-88357142D01*
X132752615Y-88359575D01*
X132712025Y-88400165D01*
X132600914Y-88400165D01*
X132600914Y-87623708D01*
X134729331Y-87623708D01*
X134729331Y-88995930D01*
G37*
D11*
G36*
X129881875Y-81720753D02*
G01*
X129896682Y-81733569D01*
X129913513Y-81763228D01*
X129916288Y-81881337D01*
X129902856Y-81912149D01*
X129890037Y-81926960D01*
X129860238Y-81943870D01*
X129789135Y-81946236D01*
X129774111Y-81939686D01*
X129772093Y-81714905D01*
X129780711Y-81710014D01*
X129851813Y-81707648D01*
X129881875Y-81720753D01*
G37*
G36*
X132366105Y-81713878D02*
G01*
X132367760Y-81939601D01*
X132360238Y-81943870D01*
X132289135Y-81946236D01*
X132259077Y-81933133D01*
X132244266Y-81920314D01*
X132227436Y-81890657D01*
X132224661Y-81772548D01*
X132238095Y-81741732D01*
X132250911Y-81726925D01*
X132280711Y-81710014D01*
X132351813Y-81707648D01*
X132366105Y-81713878D01*
G37*
G36*
X133769625Y-81654688D02*
G01*
X133828665Y-81691029D01*
X133867535Y-81744990D01*
X133889463Y-81821999D01*
X133873679Y-81895145D01*
X133837342Y-81954178D01*
X133783377Y-81993051D01*
X133706367Y-82014980D01*
X133633223Y-81999195D01*
X133585462Y-81969796D01*
X133601513Y-81968374D01*
X133605823Y-81965493D01*
X133607637Y-81966901D01*
X133610711Y-81968241D01*
X133610865Y-81968374D01*
X133611016Y-81968374D01*
X133652958Y-81986659D01*
X133658483Y-81992184D01*
X133671628Y-81994798D01*
X133674072Y-81995864D01*
X133675160Y-81995501D01*
X133677617Y-81995990D01*
X133721630Y-81993480D01*
X133728781Y-81995864D01*
X133741652Y-81992338D01*
X133744370Y-81992184D01*
X133745181Y-81991372D01*
X133747597Y-81990711D01*
X133786956Y-81968374D01*
X133791989Y-81968374D01*
X133808210Y-81957535D01*
X133810290Y-81955131D01*
X133810628Y-81954940D01*
X133810735Y-81954617D01*
X133825630Y-81937408D01*
X133829424Y-81936144D01*
X133841385Y-81920732D01*
X133842724Y-81917659D01*
X133842858Y-81917505D01*
X133842858Y-81917353D01*
X133861143Y-81875410D01*
X133866668Y-81869886D01*
X133869282Y-81856740D01*
X133870348Y-81854297D01*
X133869985Y-81853208D01*
X133870474Y-81850752D01*
X133867964Y-81806738D01*
X133870348Y-81799588D01*
X133866822Y-81786716D01*
X133866668Y-81783999D01*
X133865856Y-81783187D01*
X133865195Y-81780772D01*
X133842858Y-81741412D01*
X133842858Y-81736381D01*
X133832020Y-81720160D01*
X133829615Y-81718078D01*
X133829424Y-81717741D01*
X133829100Y-81717633D01*
X133811891Y-81702737D01*
X133810627Y-81698943D01*
X133795215Y-81686982D01*
X133792141Y-81685642D01*
X133791990Y-81685511D01*
X133791840Y-81685510D01*
X133749894Y-81667225D01*
X133744370Y-81661701D01*
X133731222Y-81659085D01*
X133728780Y-81658021D01*
X133727692Y-81658383D01*
X133725236Y-81657895D01*
X133681222Y-81660404D01*
X133674072Y-81658021D01*
X133661200Y-81661546D01*
X133658483Y-81661701D01*
X133657671Y-81662512D01*
X133655256Y-81663174D01*
X133637098Y-81673477D01*
X133625322Y-81661701D01*
X133618271Y-81661701D01*
X133619474Y-81660833D01*
X133696483Y-81638904D01*
X133769625Y-81654688D01*
G37*
G36*
X133739015Y-81768371D02*
G01*
X133753824Y-81781189D01*
X133770942Y-81811353D01*
X133772358Y-81836178D01*
X133759997Y-81864531D01*
X133747179Y-81879339D01*
X133717015Y-81896458D01*
X133692190Y-81897874D01*
X133663839Y-81885514D01*
X133655828Y-81878580D01*
X133653975Y-81776506D01*
X133655672Y-81774544D01*
X133685837Y-81757426D01*
X133710661Y-81756010D01*
X133739015Y-81768371D01*
G37*
G36*
X133559094Y-81867939D02*
G01*
X133548460Y-81863303D01*
X133536925Y-81842979D01*
X133534372Y-81750292D01*
X133556310Y-81714653D01*
X133559094Y-81867939D01*
G37*
G36*
X125405686Y-81720753D02*
G01*
X125420493Y-81733569D01*
X125437324Y-81763228D01*
X125440099Y-81881337D01*
X125426667Y-81912149D01*
X125413848Y-81926960D01*
X125384049Y-81943870D01*
X125312946Y-81946236D01*
X125298655Y-81940006D01*
X125297000Y-81714283D01*
X125304522Y-81710014D01*
X125375624Y-81707648D01*
X125405686Y-81720753D01*
G37*
G36*
X126187728Y-81862009D02*
G01*
X126199516Y-81882781D01*
X126200932Y-81907605D01*
X126190171Y-81932289D01*
X126169848Y-81943823D01*
X126075290Y-81946427D01*
X126060225Y-81939860D01*
X126059050Y-81853119D01*
X126160901Y-81850314D01*
X126187728Y-81862009D01*
G37*
G36*
X126619972Y-81720753D02*
G01*
X126634779Y-81733569D01*
X126651610Y-81763228D01*
X126654385Y-81881337D01*
X126640953Y-81912149D01*
X126628134Y-81926960D01*
X126598205Y-81943944D01*
X126550394Y-81945953D01*
X126520984Y-81933133D01*
X126506173Y-81920314D01*
X126489343Y-81890657D01*
X126486568Y-81772548D01*
X126500002Y-81741732D01*
X126512818Y-81726925D01*
X126542749Y-81709940D01*
X126590559Y-81707931D01*
X126619972Y-81720753D01*
G37*
G36*
X127081619Y-81714413D02*
G01*
X127083265Y-81938911D01*
X127074526Y-81943870D01*
X127003423Y-81946236D01*
X126973365Y-81933133D01*
X126958554Y-81920314D01*
X126941724Y-81890657D01*
X126938949Y-81772548D01*
X126952383Y-81741732D01*
X126965199Y-81726925D01*
X126994999Y-81710014D01*
X127066101Y-81707648D01*
X127081619Y-81714413D01*
G37*
G36*
X127902013Y-81719152D02*
G01*
X127913471Y-81739343D01*
X127913973Y-81766971D01*
X127775496Y-81741362D01*
X127784114Y-81721596D01*
X127804522Y-81710014D01*
X127875624Y-81707648D01*
X127902013Y-81719152D01*
G37*
G36*
X130334256Y-81720753D02*
G01*
X130349063Y-81733569D01*
X130365894Y-81763228D01*
X130368669Y-81881337D01*
X130355237Y-81912149D01*
X130342418Y-81926960D01*
X130312489Y-81943944D01*
X130264678Y-81945953D01*
X130235268Y-81933133D01*
X130220457Y-81920314D01*
X130203627Y-81890657D01*
X130200852Y-81772548D01*
X130214286Y-81741732D01*
X130227102Y-81726925D01*
X130257033Y-81709940D01*
X130304843Y-81707931D01*
X130334256Y-81720753D01*
G37*
G36*
X127806774Y-80914180D02*
G01*
X127818232Y-80934371D01*
X127818734Y-80961999D01*
X127680257Y-80936390D01*
X127688875Y-80916624D01*
X127709283Y-80905042D01*
X127780385Y-80902676D01*
X127806774Y-80914180D01*
G37*
G36*
X128663917Y-81057037D02*
G01*
X128675705Y-81077809D01*
X128677121Y-81102633D01*
X128666360Y-81127317D01*
X128646037Y-81138851D01*
X128551479Y-81141455D01*
X128536414Y-81134888D01*
X128535239Y-81048147D01*
X128637090Y-81045342D01*
X128663917Y-81057037D01*
G37*
G36*
X129367332Y-80909441D02*
G01*
X129368978Y-81133939D01*
X129360239Y-81138898D01*
X129289136Y-81141264D01*
X129259078Y-81128161D01*
X129244267Y-81115342D01*
X129227437Y-81085685D01*
X129224662Y-80967576D01*
X129238096Y-80936760D01*
X129250912Y-80921953D01*
X129280712Y-80905042D01*
X129351814Y-80902676D01*
X129367332Y-80909441D01*
G37*
G36*
X129806774Y-80914180D02*
G01*
X129818232Y-80934371D01*
X129818734Y-80961999D01*
X129680257Y-80936390D01*
X129688875Y-80916624D01*
X129709283Y-80905042D01*
X129780385Y-80902676D01*
X129806774Y-80914180D01*
G37*
G36*
X131749970Y-81139484D02*
G01*
X131623648Y-81141778D01*
X131592410Y-81128161D01*
X131577599Y-81115342D01*
X131560615Y-81085413D01*
X131558606Y-81037601D01*
X131571427Y-81008190D01*
X131583140Y-80994658D01*
X131630499Y-80976721D01*
X131748759Y-80974299D01*
X131749970Y-81139484D01*
G37*
G36*
X131748051Y-80877727D02*
G01*
X131647270Y-80879792D01*
X131616217Y-80866255D01*
X131601411Y-80853439D01*
X131584291Y-80823273D01*
X131582875Y-80798448D01*
X131595236Y-80770095D01*
X131608054Y-80755287D01*
X131637669Y-80738479D01*
X131747013Y-80736240D01*
X131748051Y-80877727D01*
G37*
G36*
X130491796Y-80996767D02*
G01*
X130387409Y-80998312D01*
X130438648Y-80840949D01*
X130491796Y-80996767D01*
G37*
G36*
X134044532Y-82265832D02*
G01*
X124714921Y-82265832D01*
X124714921Y-81898371D01*
X124770477Y-81898371D01*
X124772418Y-81920277D01*
X124770603Y-81925724D01*
X124774001Y-81938134D01*
X124774283Y-81941314D01*
X124775093Y-81942124D01*
X124775755Y-81944540D01*
X124803428Y-81993304D01*
X124806514Y-82002561D01*
X124810387Y-82005566D01*
X124811525Y-82007572D01*
X124814059Y-82008416D01*
X124821926Y-82014522D01*
X124867247Y-82034279D01*
X124872771Y-82039803D01*
X124885916Y-82042417D01*
X124888360Y-82043483D01*
X124889448Y-82043120D01*
X124891905Y-82043609D01*
X124982064Y-82040608D01*
X124990687Y-82043483D01*
X125003829Y-82039884D01*
X125006277Y-82039803D01*
X125007087Y-82038992D01*
X125009503Y-82038331D01*
X125072534Y-82002561D01*
X125084636Y-81966256D01*
X125067522Y-81932028D01*
X125031217Y-81919926D01*
X125012401Y-81925079D01*
X124979287Y-81943870D01*
X124908184Y-81946236D01*
X124881797Y-81934733D01*
X124869700Y-81913417D01*
X124869478Y-81910914D01*
X124879353Y-81888261D01*
X124899891Y-81876606D01*
X124958819Y-81874129D01*
X124966878Y-81876816D01*
X124979928Y-81873242D01*
X124982468Y-81873136D01*
X124983278Y-81872325D01*
X124985694Y-81871664D01*
X125034458Y-81843990D01*
X125043714Y-81840905D01*
X125046719Y-81837031D01*
X125048725Y-81835894D01*
X125049569Y-81833359D01*
X125055675Y-81825493D01*
X125075432Y-81780171D01*
X125080956Y-81774648D01*
X125083570Y-81761502D01*
X125084636Y-81759059D01*
X125084273Y-81757970D01*
X125084762Y-81755514D01*
X125082820Y-81733605D01*
X125084636Y-81728159D01*
X125081237Y-81715751D01*
X125080956Y-81712570D01*
X125080144Y-81711758D01*
X125079483Y-81709343D01*
X125051810Y-81660580D01*
X125048725Y-81651324D01*
X125044851Y-81648318D01*
X125043714Y-81646313D01*
X125041179Y-81645468D01*
X125033313Y-81639363D01*
X124987992Y-81619606D01*
X124982468Y-81614082D01*
X124969320Y-81611466D01*
X124966878Y-81610402D01*
X124965790Y-81610764D01*
X124963334Y-81610276D01*
X124896418Y-81613088D01*
X124888360Y-81610402D01*
X124875312Y-81613975D01*
X124872771Y-81614082D01*
X124871959Y-81614893D01*
X124869544Y-81615555D01*
X124806514Y-81651324D01*
X124794412Y-81687629D01*
X124811525Y-81721857D01*
X124847830Y-81733959D01*
X124866646Y-81728807D01*
X124899891Y-81709940D01*
X124947702Y-81707931D01*
X124973442Y-81719152D01*
X124985538Y-81740467D01*
X124985760Y-81742970D01*
X124975885Y-81765622D01*
X124955348Y-81777277D01*
X124896418Y-81779754D01*
X124888360Y-81777068D01*
X124875312Y-81780641D01*
X124872771Y-81780748D01*
X124871959Y-81781559D01*
X124869544Y-81782221D01*
X124820781Y-81809894D01*
X124811525Y-81812980D01*
X124808518Y-81816853D01*
X124806513Y-81817992D01*
X124805668Y-81820526D01*
X124799564Y-81828392D01*
X124779807Y-81873712D01*
X124774283Y-81879237D01*
X124771667Y-81892384D01*
X124770603Y-81894827D01*
X124770965Y-81895914D01*
X124770477Y-81898371D01*
X124714921Y-81898371D01*
X124714921Y-81493609D01*
X125199048Y-81493609D01*
X125200442Y-81683823D01*
X125199174Y-81687629D01*
X125200489Y-81690260D01*
X125202464Y-81959673D01*
X125199174Y-81966256D01*
X125202588Y-81976498D01*
X125202854Y-82012743D01*
X125229914Y-82039803D01*
X125268182Y-82039803D01*
X125272857Y-82035127D01*
X125277533Y-82039803D01*
X125290678Y-82042417D01*
X125293122Y-82043483D01*
X125294210Y-82043120D01*
X125296667Y-82043609D01*
X125386826Y-82040608D01*
X125395449Y-82043483D01*
X125408591Y-82039884D01*
X125411039Y-82039803D01*
X125411849Y-82038992D01*
X125414265Y-82038331D01*
X125453625Y-82015994D01*
X125458658Y-82015994D01*
X125474879Y-82005155D01*
X125476958Y-82002752D01*
X125477296Y-82002561D01*
X125477403Y-82002238D01*
X125492301Y-81985026D01*
X125496095Y-81983762D01*
X125508056Y-81968350D01*
X125509394Y-81965278D01*
X125509528Y-81965125D01*
X125509528Y-81964973D01*
X125527813Y-81923028D01*
X125533337Y-81917505D01*
X125535951Y-81904359D01*
X125537017Y-81901916D01*
X125536654Y-81900827D01*
X125537143Y-81898371D01*
X125533921Y-81761255D01*
X125537017Y-81751969D01*
X125533392Y-81738733D01*
X125533337Y-81736380D01*
X125532525Y-81735568D01*
X125531864Y-81733153D01*
X125509528Y-81693793D01*
X125509528Y-81688760D01*
X125498689Y-81672539D01*
X125496285Y-81670458D01*
X125496095Y-81670123D01*
X125495774Y-81670016D01*
X125478560Y-81655117D01*
X125477296Y-81651324D01*
X125464176Y-81641142D01*
X125583807Y-81641142D01*
X125583807Y-81679410D01*
X125610867Y-81706470D01*
X125630001Y-81710276D01*
X125663045Y-81708391D01*
X125691399Y-81720752D01*
X125706208Y-81733570D01*
X125723987Y-81764899D01*
X125726664Y-82012743D01*
X125753724Y-82039803D01*
X125791992Y-82039803D01*
X125819052Y-82012743D01*
X125822858Y-81993609D01*
X125820326Y-81759185D01*
X125822732Y-81751969D01*
X125820146Y-81742529D01*
X125820029Y-81731704D01*
X125960953Y-81731704D01*
X125961537Y-81774861D01*
X125961079Y-81775778D01*
X125961569Y-81777250D01*
X125964048Y-81960315D01*
X125961079Y-81966256D01*
X125964258Y-81975794D01*
X125964759Y-82012743D01*
X125991819Y-82039803D01*
X126030087Y-82039803D01*
X126034762Y-82035127D01*
X126039438Y-82039803D01*
X126052583Y-82042417D01*
X126055027Y-82043483D01*
X126056115Y-82043120D01*
X126058572Y-82043609D01*
X126172156Y-82040480D01*
X126181164Y-82043483D01*
X126194363Y-82039868D01*
X126196754Y-82039803D01*
X126197564Y-82038992D01*
X126199980Y-82038331D01*
X126248744Y-82010657D01*
X126258000Y-82007572D01*
X126261005Y-82003698D01*
X126263011Y-82002561D01*
X126263855Y-82000026D01*
X126269961Y-81992160D01*
X126289717Y-81946838D01*
X126295242Y-81941314D01*
X126297857Y-81928166D01*
X126298922Y-81925724D01*
X126298559Y-81924636D01*
X126299048Y-81922180D01*
X126296538Y-81878166D01*
X126298922Y-81871016D01*
X126295396Y-81858144D01*
X126295242Y-81855427D01*
X126294430Y-81854615D01*
X126293769Y-81852200D01*
X126266096Y-81803437D01*
X126263011Y-81794181D01*
X126259137Y-81791175D01*
X126258000Y-81789170D01*
X126255465Y-81788325D01*
X126247599Y-81782220D01*
X126202278Y-81762463D01*
X126196754Y-81756939D01*
X126189592Y-81755514D01*
X126389525Y-81755514D01*
X126392746Y-81892628D01*
X126389651Y-81901915D01*
X126393275Y-81915153D01*
X126393331Y-81917505D01*
X126394141Y-81918315D01*
X126394803Y-81920731D01*
X126417140Y-81960091D01*
X126417140Y-81965124D01*
X126427979Y-81981345D01*
X126430381Y-81983424D01*
X126430573Y-81983762D01*
X126430895Y-81983869D01*
X126448107Y-81998767D01*
X126449372Y-82002561D01*
X126464784Y-82014522D01*
X126467855Y-82015860D01*
X126468009Y-82015994D01*
X126468161Y-82015994D01*
X126510105Y-82034279D01*
X126515629Y-82039803D01*
X126528774Y-82042417D01*
X126531218Y-82043483D01*
X126532306Y-82043120D01*
X126534763Y-82043609D01*
X126601676Y-82040796D01*
X126609735Y-82043483D01*
X126622785Y-82039909D01*
X126625325Y-82039803D01*
X126626135Y-82038992D01*
X126628551Y-82038331D01*
X126667911Y-82015994D01*
X126672944Y-82015994D01*
X126689165Y-82005155D01*
X126691244Y-82002752D01*
X126691582Y-82002561D01*
X126691689Y-82002238D01*
X126706587Y-81985026D01*
X126710381Y-81983762D01*
X126722342Y-81968350D01*
X126723680Y-81965278D01*
X126723814Y-81965125D01*
X126723814Y-81964973D01*
X126742099Y-81923028D01*
X126747623Y-81917505D01*
X126750237Y-81904359D01*
X126751303Y-81901916D01*
X126750940Y-81900827D01*
X126751429Y-81898371D01*
X126748207Y-81761255D01*
X126750121Y-81755514D01*
X126841906Y-81755514D01*
X126845127Y-81892628D01*
X126842032Y-81901915D01*
X126845656Y-81915153D01*
X126845712Y-81917505D01*
X126846522Y-81918315D01*
X126847184Y-81920731D01*
X126869521Y-81960091D01*
X126869521Y-81965124D01*
X126880360Y-81981345D01*
X126882762Y-81983424D01*
X126882954Y-81983762D01*
X126883276Y-81983869D01*
X126900488Y-81998767D01*
X126901753Y-82002561D01*
X126917165Y-82014522D01*
X126920236Y-82015860D01*
X126920390Y-82015994D01*
X126920542Y-82015994D01*
X126962486Y-82034279D01*
X126968010Y-82039803D01*
X126981155Y-82042417D01*
X126983599Y-82043483D01*
X126984687Y-82043120D01*
X126987144Y-82043609D01*
X127077303Y-82040608D01*
X127085926Y-82043483D01*
X127099068Y-82039884D01*
X127101516Y-82039803D01*
X127102326Y-82038992D01*
X127104742Y-82038331D01*
X127107710Y-82036646D01*
X127110867Y-82039803D01*
X127149135Y-82039803D01*
X127176195Y-82012743D01*
X127180001Y-81993609D01*
X127179802Y-81966474D01*
X127179875Y-81966256D01*
X127179799Y-81966104D01*
X127177788Y-81691802D01*
X127179875Y-81687629D01*
X127177710Y-81681134D01*
X127177539Y-81657793D01*
X127270539Y-81657793D01*
X127273390Y-81677093D01*
X127389706Y-81992582D01*
X127389528Y-81992999D01*
X127389922Y-81995117D01*
X127389586Y-81996091D01*
X127390439Y-81997892D01*
X127393100Y-82012178D01*
X127440949Y-82123386D01*
X127440950Y-82131792D01*
X127451107Y-82146994D01*
X127451359Y-82147579D01*
X127451553Y-82147662D01*
X127451788Y-82148013D01*
X127471915Y-82165433D01*
X127473180Y-82169226D01*
X127488592Y-82181187D01*
X127491666Y-82182527D01*
X127491820Y-82182660D01*
X127491971Y-82182660D01*
X127555027Y-82210150D01*
X127591332Y-82198049D01*
X127608446Y-82163821D01*
X127596345Y-82127516D01*
X127580933Y-82115555D01*
X127544794Y-82099800D01*
X127530821Y-82087706D01*
X127491492Y-81996303D01*
X127582960Y-81731704D01*
X127675238Y-81731704D01*
X127677992Y-81780009D01*
X127676189Y-81789026D01*
X127678723Y-81792827D01*
X127679044Y-81798457D01*
X127689340Y-81808753D01*
X127697416Y-81820867D01*
X127704324Y-81823737D01*
X127706104Y-81825517D01*
X127708608Y-81825517D01*
X127715432Y-81828352D01*
X127915760Y-81865398D01*
X127916474Y-81904720D01*
X127904456Y-81932289D01*
X127884049Y-81943870D01*
X127812946Y-81946236D01*
X127752592Y-81919926D01*
X127716287Y-81932028D01*
X127699174Y-81966256D01*
X127711276Y-82002561D01*
X127726688Y-82014522D01*
X127772009Y-82034279D01*
X127777533Y-82039803D01*
X127790678Y-82042417D01*
X127793122Y-82043483D01*
X127794210Y-82043120D01*
X127796667Y-82043609D01*
X127886826Y-82040608D01*
X127895449Y-82043483D01*
X127908591Y-82039884D01*
X127911039Y-82039803D01*
X127911849Y-82038992D01*
X127914265Y-82038331D01*
X127963029Y-82010657D01*
X127972285Y-82007572D01*
X127975290Y-82003698D01*
X127977296Y-82002561D01*
X127978140Y-82000026D01*
X127984246Y-81992160D01*
X127989023Y-81981200D01*
X128105374Y-81981200D01*
X128110786Y-82019084D01*
X128141401Y-82042045D01*
X128179285Y-82036633D01*
X128193810Y-82023609D01*
X128373261Y-81779228D01*
X128391751Y-81797388D01*
X128393330Y-82012743D01*
X128420390Y-82039803D01*
X128458658Y-82039803D01*
X128485718Y-82012743D01*
X128489524Y-81993609D01*
X128487281Y-81687629D01*
X128984887Y-81687629D01*
X129002000Y-81721857D01*
X129038305Y-81733959D01*
X129057121Y-81728807D01*
X129090235Y-81710014D01*
X129161337Y-81707648D01*
X129191399Y-81720753D01*
X129206206Y-81733569D01*
X129223037Y-81763228D01*
X129225812Y-81881337D01*
X129212380Y-81912149D01*
X129199561Y-81926960D01*
X129169762Y-81943870D01*
X129098659Y-81946236D01*
X129038305Y-81919926D01*
X129002000Y-81932028D01*
X128984887Y-81966256D01*
X128996989Y-82002561D01*
X129012401Y-82014522D01*
X129057722Y-82034279D01*
X129063246Y-82039803D01*
X129076391Y-82042417D01*
X129078835Y-82043483D01*
X129079923Y-82043120D01*
X129082380Y-82043609D01*
X129172539Y-82040608D01*
X129181162Y-82043483D01*
X129194304Y-82039884D01*
X129196752Y-82039803D01*
X129197562Y-82038992D01*
X129199978Y-82038331D01*
X129239338Y-82015994D01*
X129244371Y-82015994D01*
X129260592Y-82005155D01*
X129262671Y-82002752D01*
X129263009Y-82002561D01*
X129263116Y-82002238D01*
X129278014Y-81985026D01*
X129281808Y-81983762D01*
X129293769Y-81968350D01*
X129295107Y-81965278D01*
X129295241Y-81965125D01*
X129295241Y-81964973D01*
X129313526Y-81923028D01*
X129319050Y-81917505D01*
X129321664Y-81904359D01*
X129322730Y-81901916D01*
X129322367Y-81900827D01*
X129322856Y-81898371D01*
X129319634Y-81761255D01*
X129322730Y-81751969D01*
X129319105Y-81738733D01*
X129319050Y-81736380D01*
X129318238Y-81735568D01*
X129317577Y-81733153D01*
X129295241Y-81693793D01*
X129295241Y-81688760D01*
X129284402Y-81672539D01*
X129281998Y-81670458D01*
X129281808Y-81670123D01*
X129281487Y-81670016D01*
X129270234Y-81660276D01*
X129437142Y-81660276D01*
X129440948Y-82012743D01*
X129468008Y-82039803D01*
X129506276Y-82039803D01*
X129533336Y-82012743D01*
X129537142Y-81993609D01*
X129533543Y-81660276D01*
X129675237Y-81660276D01*
X129675479Y-81687279D01*
X129675363Y-81687629D01*
X129675484Y-81687872D01*
X129677938Y-81961105D01*
X129675363Y-81966256D01*
X129678056Y-81974337D01*
X129678810Y-82058240D01*
X129675363Y-82068583D01*
X129679023Y-82081947D01*
X129679043Y-82084172D01*
X129679854Y-82084983D01*
X129680516Y-82087399D01*
X129702853Y-82126758D01*
X129702853Y-82131791D01*
X129713692Y-82148012D01*
X129716095Y-82150092D01*
X129716287Y-82150430D01*
X129716609Y-82150537D01*
X129733818Y-82165432D01*
X129735083Y-82169226D01*
X129750495Y-82181187D01*
X129753567Y-82182526D01*
X129753722Y-82182660D01*
X129753874Y-82182660D01*
X129795816Y-82200945D01*
X129801341Y-82206470D01*
X129814486Y-82209084D01*
X129816930Y-82210150D01*
X129818018Y-82209787D01*
X129820475Y-82210276D01*
X129887390Y-82207463D01*
X129895449Y-82210150D01*
X129908496Y-82206576D01*
X129911038Y-82206470D01*
X129911849Y-82205658D01*
X129914265Y-82204997D01*
X129977296Y-82169226D01*
X129989397Y-82132921D01*
X129972283Y-82098693D01*
X129935978Y-82086592D01*
X129917162Y-82091745D01*
X129883917Y-82110611D01*
X129836105Y-82112620D01*
X129806695Y-82099799D01*
X129791887Y-82086981D01*
X129775169Y-82057524D01*
X129775043Y-82043536D01*
X129863015Y-82040608D01*
X129871638Y-82043483D01*
X129884780Y-82039884D01*
X129887228Y-82039803D01*
X129888038Y-82038992D01*
X129890454Y-82038331D01*
X129929814Y-82015994D01*
X129934847Y-82015994D01*
X129951068Y-82005155D01*
X129953147Y-82002752D01*
X129953485Y-82002561D01*
X129953592Y-82002238D01*
X129968490Y-81985026D01*
X129972284Y-81983762D01*
X129984245Y-81968350D01*
X129985583Y-81965278D01*
X129985717Y-81965125D01*
X129985717Y-81964973D01*
X130004002Y-81923028D01*
X130009526Y-81917505D01*
X130012140Y-81904359D01*
X130013206Y-81901916D01*
X130012843Y-81900827D01*
X130013332Y-81898371D01*
X130010110Y-81761255D01*
X130012024Y-81755514D01*
X130103809Y-81755514D01*
X130107030Y-81892628D01*
X130103935Y-81901915D01*
X130107559Y-81915153D01*
X130107615Y-81917505D01*
X130108425Y-81918315D01*
X130109087Y-81920731D01*
X130131424Y-81960091D01*
X130131424Y-81965124D01*
X130142263Y-81981345D01*
X130144665Y-81983424D01*
X130144857Y-81983762D01*
X130145179Y-81983869D01*
X130162391Y-81998767D01*
X130163656Y-82002561D01*
X130179068Y-82014522D01*
X130182139Y-82015860D01*
X130182293Y-82015994D01*
X130182445Y-82015994D01*
X130224389Y-82034279D01*
X130229913Y-82039803D01*
X130243058Y-82042417D01*
X130245502Y-82043483D01*
X130246590Y-82043120D01*
X130249047Y-82043609D01*
X130315960Y-82040796D01*
X130324019Y-82043483D01*
X130337069Y-82039909D01*
X130339609Y-82039803D01*
X130340419Y-82038992D01*
X130342835Y-82038331D01*
X130382195Y-82015994D01*
X130387228Y-82015994D01*
X130403449Y-82005155D01*
X130405528Y-82002752D01*
X130405866Y-82002561D01*
X130405973Y-82002238D01*
X130420871Y-81985026D01*
X130424665Y-81983762D01*
X130431872Y-81974475D01*
X130512377Y-81974475D01*
X130512377Y-82012743D01*
X130539437Y-82039803D01*
X130558571Y-82043609D01*
X130815800Y-82039803D01*
X130842860Y-82012743D01*
X130846666Y-81993609D01*
X130844082Y-81641142D01*
X131298090Y-81641142D01*
X131298090Y-81679410D01*
X131325150Y-81706470D01*
X131344284Y-81710276D01*
X131415162Y-81708989D01*
X131416820Y-81903926D01*
X131404455Y-81932289D01*
X131383682Y-81944077D01*
X131325150Y-81947415D01*
X131298090Y-81974475D01*
X131298090Y-82012743D01*
X131325150Y-82039803D01*
X131344284Y-82043609D01*
X131388296Y-82041099D01*
X131395447Y-82043483D01*
X131408321Y-82039957D01*
X131411037Y-82039803D01*
X131411847Y-82038992D01*
X131414263Y-82038331D01*
X131463025Y-82010658D01*
X131472282Y-82007573D01*
X131475288Y-82003699D01*
X131477294Y-82002561D01*
X131478138Y-82000026D01*
X131484243Y-81992161D01*
X131504000Y-81946839D01*
X131509526Y-81941314D01*
X131512141Y-81928166D01*
X131513206Y-81925724D01*
X131512843Y-81924636D01*
X131513332Y-81922180D01*
X131511504Y-81707239D01*
X131553894Y-81706470D01*
X131580954Y-81679410D01*
X131580954Y-81660276D01*
X131651427Y-81660276D01*
X131655233Y-82012743D01*
X131682293Y-82039803D01*
X131720561Y-82039803D01*
X131747621Y-82012743D01*
X131750722Y-81997153D01*
X131842029Y-81997153D01*
X131859142Y-82031381D01*
X131895447Y-82043483D01*
X131914263Y-82038331D01*
X131963025Y-82010658D01*
X131972282Y-82007573D01*
X131975288Y-82003699D01*
X131977294Y-82002561D01*
X131978138Y-82000026D01*
X131984243Y-81992161D01*
X132004000Y-81946839D01*
X132009526Y-81941314D01*
X132012141Y-81928166D01*
X132013206Y-81925724D01*
X132012843Y-81924636D01*
X132013332Y-81922180D01*
X132011915Y-81755514D01*
X132127618Y-81755514D01*
X132130839Y-81892628D01*
X132127744Y-81901915D01*
X132131368Y-81915153D01*
X132131424Y-81917505D01*
X132132234Y-81918315D01*
X132132896Y-81920731D01*
X132155233Y-81960091D01*
X132155233Y-81965124D01*
X132166072Y-81981345D01*
X132168474Y-81983424D01*
X132168666Y-81983762D01*
X132168988Y-81983869D01*
X132186200Y-81998767D01*
X132187465Y-82002561D01*
X132202877Y-82014522D01*
X132205948Y-82015860D01*
X132206102Y-82015994D01*
X132206254Y-82015994D01*
X132248198Y-82034279D01*
X132253722Y-82039803D01*
X132266867Y-82042417D01*
X132269311Y-82043483D01*
X132270399Y-82043120D01*
X132272856Y-82043609D01*
X132363015Y-82040608D01*
X132368514Y-82042441D01*
X132369519Y-82179410D01*
X132396579Y-82206470D01*
X132434847Y-82206470D01*
X132461907Y-82179410D01*
X132465713Y-82160276D01*
X132464318Y-81970061D01*
X132465587Y-81966256D01*
X132464271Y-81963624D01*
X132463444Y-81850752D01*
X132579998Y-81850752D01*
X132582507Y-81894765D01*
X132580124Y-81901916D01*
X132583649Y-81914787D01*
X132583804Y-81917505D01*
X132584615Y-81918316D01*
X132585277Y-81920732D01*
X132607614Y-81960091D01*
X132607614Y-81965123D01*
X132618452Y-81981345D01*
X132620857Y-81983426D01*
X132621048Y-81983763D01*
X132621369Y-81983870D01*
X132638580Y-81998767D01*
X132639845Y-82002561D01*
X132655257Y-82014522D01*
X132658328Y-82015860D01*
X132658482Y-82015994D01*
X132658634Y-82015994D01*
X132700578Y-82034279D01*
X132706102Y-82039803D01*
X132719247Y-82042417D01*
X132721691Y-82043483D01*
X132722779Y-82043120D01*
X132725236Y-82043609D01*
X132834948Y-82040587D01*
X132840740Y-82043483D01*
X132860095Y-82041043D01*
X132863365Y-82039804D01*
X132863418Y-82039803D01*
X132863447Y-82039773D01*
X132948472Y-82007573D01*
X132965587Y-81973344D01*
X132953485Y-81937040D01*
X132919257Y-81919926D01*
X132899901Y-81922366D01*
X132843771Y-81943623D01*
X132741954Y-81946427D01*
X132711455Y-81933132D01*
X132696649Y-81920316D01*
X132679529Y-81890150D01*
X132678113Y-81865325D01*
X132690473Y-81836974D01*
X132703292Y-81822163D01*
X132735064Y-81804132D01*
X132737363Y-81804021D01*
X132820405Y-81780373D01*
X132824018Y-81781578D01*
X132842834Y-81776426D01*
X132882194Y-81754089D01*
X132887227Y-81754089D01*
X132903448Y-81743250D01*
X132905527Y-81740847D01*
X132905865Y-81740656D01*
X132905972Y-81740333D01*
X132913441Y-81731704D01*
X133437140Y-81731704D01*
X133440268Y-81845288D01*
X133437266Y-81854297D01*
X133440880Y-81867493D01*
X133440946Y-81869886D01*
X133441757Y-81870697D01*
X133442419Y-81873113D01*
X133470092Y-81921875D01*
X133473178Y-81931132D01*
X133477051Y-81934138D01*
X133478190Y-81936144D01*
X133480724Y-81936988D01*
X133488590Y-81943093D01*
X133508468Y-81951758D01*
X133506938Y-81952065D01*
X133485711Y-81983905D01*
X133493216Y-82021431D01*
X133507025Y-82035211D01*
X133573115Y-82075891D01*
X133576421Y-82081402D01*
X133594061Y-82089735D01*
X133596437Y-82090247D01*
X133596485Y-82090277D01*
X133596530Y-82090267D01*
X133685799Y-82109532D01*
X133694067Y-82114493D01*
X133706077Y-82113908D01*
X133708785Y-82114493D01*
X133710083Y-82113713D01*
X133713553Y-82113545D01*
X133799844Y-82088972D01*
X133806367Y-82090277D01*
X133824399Y-82082831D01*
X133826351Y-82081424D01*
X133826430Y-82081402D01*
X133826465Y-82081342D01*
X133888539Y-82036628D01*
X133895915Y-82035153D01*
X133909538Y-82021502D01*
X133909637Y-82021431D01*
X133909643Y-82021396D01*
X133909696Y-82021344D01*
X133950378Y-81955250D01*
X133955886Y-81951946D01*
X133964219Y-81934307D01*
X133964731Y-81931932D01*
X133964762Y-81931883D01*
X133964752Y-81931835D01*
X133984015Y-81842567D01*
X133988976Y-81834301D01*
X133988391Y-81822290D01*
X133988976Y-81819583D01*
X133988196Y-81818284D01*
X133988028Y-81814815D01*
X133963456Y-81728523D01*
X133964761Y-81722001D01*
X133957314Y-81703969D01*
X133955908Y-81702018D01*
X133955886Y-81701938D01*
X133955824Y-81701901D01*
X133911112Y-81639829D01*
X133909637Y-81632454D01*
X133895988Y-81618834D01*
X133895915Y-81618732D01*
X133895878Y-81618724D01*
X133895828Y-81618674D01*
X133829735Y-81577991D01*
X133826430Y-81572483D01*
X133808791Y-81564150D01*
X133806414Y-81563637D01*
X133806367Y-81563608D01*
X133806321Y-81563617D01*
X133717052Y-81544352D01*
X133708785Y-81539392D01*
X133696774Y-81539976D01*
X133694067Y-81539392D01*
X133692768Y-81540171D01*
X133689299Y-81540340D01*
X133603007Y-81564912D01*
X133596485Y-81563608D01*
X133578453Y-81571055D01*
X133576502Y-81572459D01*
X133576421Y-81572483D01*
X133576383Y-81572545D01*
X133514314Y-81617255D01*
X133506939Y-81618731D01*
X133493314Y-81632382D01*
X133493216Y-81632454D01*
X133493209Y-81632488D01*
X133493158Y-81632540D01*
X133448618Y-81704897D01*
X133440946Y-81712570D01*
X133439537Y-81719649D01*
X133438091Y-81722000D01*
X133438581Y-81724454D01*
X133437140Y-81731704D01*
X132913441Y-81731704D01*
X132920870Y-81723121D01*
X132924664Y-81721857D01*
X132936625Y-81706445D01*
X132937963Y-81703373D01*
X132938097Y-81703220D01*
X132938097Y-81703068D01*
X132956382Y-81661123D01*
X132961906Y-81655600D01*
X132964520Y-81642454D01*
X132965586Y-81640011D01*
X132965223Y-81638922D01*
X132965712Y-81636466D01*
X132963202Y-81592452D01*
X132965586Y-81585302D01*
X132962060Y-81572430D01*
X132961906Y-81569713D01*
X132961094Y-81568901D01*
X132960433Y-81566486D01*
X132938097Y-81527126D01*
X132938097Y-81522093D01*
X132927258Y-81505872D01*
X132924854Y-81503791D01*
X132924664Y-81503456D01*
X132924342Y-81503348D01*
X132907130Y-81488451D01*
X132905866Y-81484659D01*
X132890454Y-81472698D01*
X132887379Y-81471357D01*
X132887226Y-81471225D01*
X132887075Y-81471225D01*
X132845132Y-81452939D01*
X132839608Y-81447415D01*
X132826462Y-81444800D01*
X132824019Y-81443735D01*
X132822930Y-81444097D01*
X132820474Y-81443609D01*
X132710762Y-81446630D01*
X132704971Y-81443735D01*
X132685616Y-81446175D01*
X132682345Y-81447413D01*
X132682293Y-81447415D01*
X132682263Y-81447444D01*
X132597238Y-81479646D01*
X132580124Y-81513875D01*
X132592225Y-81550179D01*
X132626454Y-81567293D01*
X132645810Y-81564853D01*
X132701940Y-81543594D01*
X132803756Y-81540790D01*
X132834251Y-81554084D01*
X132849062Y-81566903D01*
X132866180Y-81597067D01*
X132867596Y-81621891D01*
X132855236Y-81650244D01*
X132842417Y-81665055D01*
X132810645Y-81683085D01*
X132808347Y-81683197D01*
X132725303Y-81706844D01*
X132721691Y-81705640D01*
X132702875Y-81710793D01*
X132663516Y-81733129D01*
X132658482Y-81733129D01*
X132642261Y-81743968D01*
X132640180Y-81746371D01*
X132639845Y-81746562D01*
X132639737Y-81746883D01*
X132624840Y-81764095D01*
X132621048Y-81765360D01*
X132609087Y-81780772D01*
X132607746Y-81783846D01*
X132607614Y-81784000D01*
X132607614Y-81784150D01*
X132589328Y-81826093D01*
X132583804Y-81831618D01*
X132581189Y-81844763D01*
X132580124Y-81847207D01*
X132580486Y-81848295D01*
X132579998Y-81850752D01*
X132463444Y-81850752D01*
X132462296Y-81694210D01*
X132465587Y-81687629D01*
X132462172Y-81677386D01*
X132461907Y-81641142D01*
X132434847Y-81614082D01*
X132396579Y-81614082D01*
X132391903Y-81618757D01*
X132387228Y-81614082D01*
X132374080Y-81611466D01*
X132371638Y-81610402D01*
X132370550Y-81610764D01*
X132368094Y-81610276D01*
X132277933Y-81613276D01*
X132269311Y-81610402D01*
X132256171Y-81614000D01*
X132253722Y-81614082D01*
X132252910Y-81614893D01*
X132250495Y-81615555D01*
X132211136Y-81637891D01*
X132206102Y-81637891D01*
X132189881Y-81648730D01*
X132187800Y-81651133D01*
X132187465Y-81651324D01*
X132187358Y-81651644D01*
X132172459Y-81668858D01*
X132168666Y-81670123D01*
X132156705Y-81685535D01*
X132155365Y-81688608D01*
X132155233Y-81688761D01*
X132155233Y-81688911D01*
X132136948Y-81730855D01*
X132131424Y-81736380D01*
X132128808Y-81749527D01*
X132127744Y-81751970D01*
X132128106Y-81753057D01*
X132127618Y-81755514D01*
X132011915Y-81755514D01*
X132009526Y-81474475D01*
X131982466Y-81447415D01*
X131944198Y-81447415D01*
X131917138Y-81474475D01*
X131913332Y-81493609D01*
X131916820Y-81903926D01*
X131904455Y-81932289D01*
X131854131Y-81960848D01*
X131842029Y-81997153D01*
X131750722Y-81997153D01*
X131751427Y-81993609D01*
X131747621Y-81641142D01*
X131720561Y-81614082D01*
X131682293Y-81614082D01*
X131655233Y-81641142D01*
X131651427Y-81660276D01*
X131580954Y-81660276D01*
X131580954Y-81641142D01*
X131553894Y-81614082D01*
X131534760Y-81610276D01*
X131510684Y-81610713D01*
X131509728Y-81498285D01*
X131631423Y-81498285D01*
X131631423Y-81536553D01*
X131631424Y-81536554D01*
X131642262Y-81552775D01*
X131682286Y-81587415D01*
X131682293Y-81587422D01*
X131682294Y-81587422D01*
X131720562Y-81587422D01*
X131720564Y-81587419D01*
X131736782Y-81576583D01*
X131771423Y-81536560D01*
X131771430Y-81536554D01*
X131771430Y-81498286D01*
X131771430Y-81498285D01*
X131771427Y-81498282D01*
X131760592Y-81482065D01*
X131720562Y-81447416D01*
X131720561Y-81447415D01*
X131682292Y-81447415D01*
X131666071Y-81458254D01*
X131631423Y-81498285D01*
X131509728Y-81498285D01*
X131509526Y-81474475D01*
X131482466Y-81447415D01*
X131444198Y-81447415D01*
X131417138Y-81474475D01*
X131413332Y-81493609D01*
X131414342Y-81612462D01*
X131325150Y-81614082D01*
X131298090Y-81641142D01*
X130844082Y-81641142D01*
X130842860Y-81474475D01*
X130815800Y-81447415D01*
X130777532Y-81447415D01*
X130750472Y-81474475D01*
X130746666Y-81493609D01*
X130749970Y-81944299D01*
X130539437Y-81947415D01*
X130512377Y-81974475D01*
X130431872Y-81974475D01*
X130436626Y-81968350D01*
X130437964Y-81965278D01*
X130438098Y-81965125D01*
X130438098Y-81964973D01*
X130456383Y-81923028D01*
X130461907Y-81917505D01*
X130464521Y-81904359D01*
X130465587Y-81901916D01*
X130465224Y-81900827D01*
X130465713Y-81898371D01*
X130462491Y-81761255D01*
X130465587Y-81751969D01*
X130461962Y-81738733D01*
X130461907Y-81736380D01*
X130461095Y-81735568D01*
X130460434Y-81733153D01*
X130438098Y-81693793D01*
X130438098Y-81688760D01*
X130427259Y-81672539D01*
X130424855Y-81670458D01*
X130424665Y-81670123D01*
X130424344Y-81670016D01*
X130407130Y-81655117D01*
X130405866Y-81651324D01*
X130390454Y-81639363D01*
X130387380Y-81638023D01*
X130387228Y-81637891D01*
X130387077Y-81637891D01*
X130345133Y-81619606D01*
X130339609Y-81614082D01*
X130326461Y-81611466D01*
X130324019Y-81610402D01*
X130322931Y-81610764D01*
X130320475Y-81610276D01*
X130253560Y-81613088D01*
X130245502Y-81610402D01*
X130232454Y-81613975D01*
X130229913Y-81614082D01*
X130229101Y-81614893D01*
X130226686Y-81615555D01*
X130187327Y-81637891D01*
X130182293Y-81637891D01*
X130166072Y-81648730D01*
X130163991Y-81651133D01*
X130163656Y-81651324D01*
X130163549Y-81651644D01*
X130148650Y-81668858D01*
X130144857Y-81670123D01*
X130132896Y-81685535D01*
X130131556Y-81688608D01*
X130131424Y-81688761D01*
X130131424Y-81688911D01*
X130113139Y-81730855D01*
X130107615Y-81736380D01*
X130104999Y-81749527D01*
X130103935Y-81751970D01*
X130104297Y-81753057D01*
X130103809Y-81755514D01*
X130012024Y-81755514D01*
X130013206Y-81751969D01*
X130009581Y-81738733D01*
X130009526Y-81736380D01*
X130008714Y-81735568D01*
X130008053Y-81733153D01*
X129985717Y-81693793D01*
X129985717Y-81688760D01*
X129974878Y-81672539D01*
X129972474Y-81670458D01*
X129972284Y-81670123D01*
X129971963Y-81670016D01*
X129954749Y-81655117D01*
X129953485Y-81651324D01*
X129938073Y-81639363D01*
X129934999Y-81638023D01*
X129934847Y-81637891D01*
X129934696Y-81637891D01*
X129892752Y-81619606D01*
X129887228Y-81614082D01*
X129874080Y-81611466D01*
X129871638Y-81610402D01*
X129870550Y-81610764D01*
X129868094Y-81610276D01*
X129777933Y-81613276D01*
X129769311Y-81610402D01*
X129756171Y-81614000D01*
X129753722Y-81614082D01*
X129752910Y-81614893D01*
X129750495Y-81615555D01*
X129747527Y-81617238D01*
X129744371Y-81614082D01*
X129706103Y-81614082D01*
X129679043Y-81641142D01*
X129675237Y-81660276D01*
X129533543Y-81660276D01*
X129533336Y-81641142D01*
X129506276Y-81614082D01*
X129468008Y-81614082D01*
X129440948Y-81641142D01*
X129437142Y-81660276D01*
X129270234Y-81660276D01*
X129264273Y-81655117D01*
X129263009Y-81651324D01*
X129247597Y-81639363D01*
X129244523Y-81638023D01*
X129244371Y-81637891D01*
X129244220Y-81637891D01*
X129202276Y-81619606D01*
X129196752Y-81614082D01*
X129183604Y-81611466D01*
X129181162Y-81610402D01*
X129180074Y-81610764D01*
X129177618Y-81610276D01*
X129087457Y-81613276D01*
X129078835Y-81610402D01*
X129065695Y-81614000D01*
X129063246Y-81614082D01*
X129062434Y-81614893D01*
X129060019Y-81615555D01*
X128996989Y-81651324D01*
X128984887Y-81687629D01*
X128487281Y-81687629D01*
X128485893Y-81498285D01*
X129417138Y-81498285D01*
X129417138Y-81536553D01*
X129417139Y-81536554D01*
X129427977Y-81552775D01*
X129468001Y-81587415D01*
X129468008Y-81587422D01*
X129468009Y-81587422D01*
X129506277Y-81587422D01*
X129506279Y-81587419D01*
X129522497Y-81576583D01*
X129557138Y-81536560D01*
X129557145Y-81536554D01*
X129557145Y-81498286D01*
X129557145Y-81498285D01*
X129557142Y-81498282D01*
X129546307Y-81482065D01*
X129506277Y-81447416D01*
X129506276Y-81447415D01*
X129468007Y-81447415D01*
X129451786Y-81458254D01*
X129417138Y-81498285D01*
X128485893Y-81498285D01*
X128485718Y-81474475D01*
X128458658Y-81447415D01*
X128420390Y-81447415D01*
X128393330Y-81474475D01*
X128389524Y-81493609D01*
X128390753Y-81661341D01*
X128172944Y-81447415D01*
X128134676Y-81447415D01*
X128107616Y-81474475D01*
X128107616Y-81512743D01*
X128118455Y-81528964D01*
X128303789Y-81710994D01*
X128105374Y-81981200D01*
X127989023Y-81981200D01*
X128004002Y-81946838D01*
X128009527Y-81941314D01*
X128012142Y-81928166D01*
X128013207Y-81925724D01*
X128012844Y-81924636D01*
X128013333Y-81922180D01*
X128011506Y-81821614D01*
X128012382Y-81817239D01*
X128011400Y-81815767D01*
X128009985Y-81737823D01*
X128013207Y-81728159D01*
X128009568Y-81714874D01*
X128009527Y-81712570D01*
X128008715Y-81711758D01*
X128008054Y-81709343D01*
X127980381Y-81660580D01*
X127977296Y-81651324D01*
X127973422Y-81648318D01*
X127972285Y-81646313D01*
X127969750Y-81645468D01*
X127961884Y-81639363D01*
X127916563Y-81619606D01*
X127911039Y-81614082D01*
X127897891Y-81611466D01*
X127895449Y-81610402D01*
X127894361Y-81610764D01*
X127891905Y-81610276D01*
X127801744Y-81613276D01*
X127793122Y-81610402D01*
X127779982Y-81614000D01*
X127777533Y-81614082D01*
X127776721Y-81614893D01*
X127774306Y-81615555D01*
X127725544Y-81643226D01*
X127716288Y-81646312D01*
X127713281Y-81650185D01*
X127711276Y-81651324D01*
X127710431Y-81653858D01*
X127704327Y-81661724D01*
X127684568Y-81707045D01*
X127679044Y-81712570D01*
X127676429Y-81725715D01*
X127675364Y-81728159D01*
X127675726Y-81729247D01*
X127675238Y-81731704D01*
X127582960Y-81731704D01*
X127608510Y-81657793D01*
X127592128Y-81623209D01*
X127556090Y-81610338D01*
X127521505Y-81626720D01*
X127511485Y-81643459D01*
X127439979Y-81850311D01*
X127357544Y-81626720D01*
X127322960Y-81610338D01*
X127286921Y-81623209D01*
X127270539Y-81657793D01*
X127177539Y-81657793D01*
X127176195Y-81474475D01*
X127149135Y-81447415D01*
X127110867Y-81447415D01*
X127083807Y-81474475D01*
X127080001Y-81493609D01*
X127080856Y-81610326D01*
X126992221Y-81613276D01*
X126983599Y-81610402D01*
X126970459Y-81614000D01*
X126968010Y-81614082D01*
X126967198Y-81614893D01*
X126964783Y-81615555D01*
X126925424Y-81637891D01*
X126920390Y-81637891D01*
X126904169Y-81648730D01*
X126902088Y-81651133D01*
X126901753Y-81651324D01*
X126901646Y-81651644D01*
X126886747Y-81668858D01*
X126882954Y-81670123D01*
X126870993Y-81685535D01*
X126869653Y-81688608D01*
X126869521Y-81688761D01*
X126869521Y-81688911D01*
X126851236Y-81730855D01*
X126845712Y-81736380D01*
X126843096Y-81749527D01*
X126842032Y-81751970D01*
X126842394Y-81753057D01*
X126841906Y-81755514D01*
X126750121Y-81755514D01*
X126751303Y-81751969D01*
X126747678Y-81738733D01*
X126747623Y-81736380D01*
X126746811Y-81735568D01*
X126746150Y-81733153D01*
X126723814Y-81693793D01*
X126723814Y-81688760D01*
X126712975Y-81672539D01*
X126710571Y-81670458D01*
X126710381Y-81670123D01*
X126710060Y-81670016D01*
X126692846Y-81655117D01*
X126691582Y-81651324D01*
X126676170Y-81639363D01*
X126673096Y-81638023D01*
X126672944Y-81637891D01*
X126672793Y-81637891D01*
X126630849Y-81619606D01*
X126625325Y-81614082D01*
X126612177Y-81611466D01*
X126609735Y-81610402D01*
X126608647Y-81610764D01*
X126606191Y-81610276D01*
X126539276Y-81613088D01*
X126531218Y-81610402D01*
X126518170Y-81613975D01*
X126515629Y-81614082D01*
X126514817Y-81614893D01*
X126512402Y-81615555D01*
X126473043Y-81637891D01*
X126468009Y-81637891D01*
X126451788Y-81648730D01*
X126449707Y-81651133D01*
X126449372Y-81651324D01*
X126449265Y-81651644D01*
X126434366Y-81668858D01*
X126430573Y-81670123D01*
X126418612Y-81685535D01*
X126417272Y-81688608D01*
X126417140Y-81688761D01*
X126417140Y-81688911D01*
X126398855Y-81730855D01*
X126393331Y-81736380D01*
X126390715Y-81749527D01*
X126389651Y-81751970D01*
X126390013Y-81753057D01*
X126389525Y-81755514D01*
X126189592Y-81755514D01*
X126183606Y-81754323D01*
X126181164Y-81753259D01*
X126180076Y-81753621D01*
X126177620Y-81753133D01*
X126075289Y-81755951D01*
X126058115Y-81748464D01*
X126069829Y-81721596D01*
X126090237Y-81710014D01*
X126161339Y-81707648D01*
X126221694Y-81733959D01*
X126257999Y-81721857D01*
X126275113Y-81687629D01*
X126263011Y-81651324D01*
X126247599Y-81639363D01*
X126202278Y-81619606D01*
X126196754Y-81614082D01*
X126183606Y-81611466D01*
X126181164Y-81610402D01*
X126180076Y-81610764D01*
X126177620Y-81610276D01*
X126087459Y-81613276D01*
X126078837Y-81610402D01*
X126065697Y-81614000D01*
X126063248Y-81614082D01*
X126062436Y-81614893D01*
X126060021Y-81615555D01*
X126011259Y-81643226D01*
X126002003Y-81646312D01*
X125998996Y-81650185D01*
X125996991Y-81651324D01*
X125996146Y-81653858D01*
X125990042Y-81661724D01*
X125970283Y-81707045D01*
X125964759Y-81712570D01*
X125962144Y-81725715D01*
X125961079Y-81728159D01*
X125961441Y-81729247D01*
X125960953Y-81731704D01*
X125820029Y-81731704D01*
X125819052Y-81641142D01*
X125791992Y-81614082D01*
X125753724Y-81614082D01*
X125734258Y-81633547D01*
X125702278Y-81619606D01*
X125696754Y-81614082D01*
X125683606Y-81611466D01*
X125681164Y-81610402D01*
X125680076Y-81610764D01*
X125677620Y-81610276D01*
X125610867Y-81614082D01*
X125583807Y-81641142D01*
X125464176Y-81641142D01*
X125461884Y-81639363D01*
X125458810Y-81638023D01*
X125458658Y-81637891D01*
X125458507Y-81637891D01*
X125416563Y-81619606D01*
X125411039Y-81614082D01*
X125397891Y-81611466D01*
X125395449Y-81610402D01*
X125394361Y-81610764D01*
X125391905Y-81610276D01*
X125301744Y-81613276D01*
X125296246Y-81611443D01*
X125295242Y-81474475D01*
X125268182Y-81447415D01*
X125229914Y-81447415D01*
X125202854Y-81474475D01*
X125199048Y-81493609D01*
X124714921Y-81493609D01*
X124714921Y-80836170D01*
X127226663Y-80836170D01*
X127226663Y-80874438D01*
X127253723Y-80901498D01*
X127272857Y-80905304D01*
X127305901Y-80903419D01*
X127334255Y-80915780D01*
X127349064Y-80928598D01*
X127366843Y-80959927D01*
X127369520Y-81207771D01*
X127396580Y-81234831D01*
X127434848Y-81234831D01*
X127461908Y-81207771D01*
X127465714Y-81188637D01*
X127463182Y-80954213D01*
X127465588Y-80946997D01*
X127463002Y-80937557D01*
X127462885Y-80926732D01*
X127579999Y-80926732D01*
X127582753Y-80975037D01*
X127580950Y-80984054D01*
X127583484Y-80987855D01*
X127583805Y-80993485D01*
X127594101Y-81003781D01*
X127602177Y-81015895D01*
X127609085Y-81018765D01*
X127610865Y-81020545D01*
X127613369Y-81020545D01*
X127620193Y-81023380D01*
X127820521Y-81060426D01*
X127821235Y-81099748D01*
X127809217Y-81127317D01*
X127788810Y-81138898D01*
X127717707Y-81141264D01*
X127657353Y-81114954D01*
X127621048Y-81127056D01*
X127603935Y-81161284D01*
X127616037Y-81197589D01*
X127631449Y-81209550D01*
X127676770Y-81229307D01*
X127682294Y-81234831D01*
X127695439Y-81237445D01*
X127697883Y-81238511D01*
X127698971Y-81238148D01*
X127701428Y-81238637D01*
X127791587Y-81235636D01*
X127800210Y-81238511D01*
X127813352Y-81234912D01*
X127815800Y-81234831D01*
X127816610Y-81234020D01*
X127819026Y-81233359D01*
X127867790Y-81205685D01*
X127877046Y-81202600D01*
X127880051Y-81198726D01*
X127882057Y-81197589D01*
X127882901Y-81195054D01*
X127889007Y-81187188D01*
X127908763Y-81141866D01*
X127914288Y-81136342D01*
X127916903Y-81123194D01*
X127917968Y-81120752D01*
X127917605Y-81119664D01*
X127918094Y-81117208D01*
X127916267Y-81016642D01*
X127917143Y-81012267D01*
X127916161Y-81010795D01*
X127914746Y-80932851D01*
X127917968Y-80923187D01*
X127914329Y-80909902D01*
X127914288Y-80907598D01*
X127913476Y-80906786D01*
X127912815Y-80904371D01*
X127892627Y-80868798D01*
X127986616Y-80868798D01*
X127988567Y-80872642D01*
X127988567Y-80874438D01*
X127990417Y-80876288D01*
X127995445Y-80886195D01*
X128198388Y-81139967D01*
X128015627Y-81142443D01*
X127988567Y-81169503D01*
X127988567Y-81207771D01*
X128015627Y-81234831D01*
X128034761Y-81238637D01*
X128296128Y-81235097D01*
X128310160Y-81236781D01*
X128312586Y-81234874D01*
X128315800Y-81234831D01*
X128327380Y-81223250D01*
X128340251Y-81213138D01*
X128340627Y-81210003D01*
X128342860Y-81207771D01*
X128342860Y-81191393D01*
X128344810Y-81175142D01*
X128342860Y-81171299D01*
X128342860Y-81169503D01*
X128341009Y-81167652D01*
X128335982Y-81157746D01*
X128151239Y-80926732D01*
X128437142Y-80926732D01*
X128437726Y-80969889D01*
X128437268Y-80970806D01*
X128437758Y-80972278D01*
X128440237Y-81155343D01*
X128437268Y-81161284D01*
X128440447Y-81170822D01*
X128440948Y-81207771D01*
X128468008Y-81234831D01*
X128506276Y-81234831D01*
X128510951Y-81230155D01*
X128515627Y-81234831D01*
X128528772Y-81237445D01*
X128531216Y-81238511D01*
X128532304Y-81238148D01*
X128534761Y-81238637D01*
X128648345Y-81235508D01*
X128657353Y-81238511D01*
X128670552Y-81234896D01*
X128672943Y-81234831D01*
X128673753Y-81234020D01*
X128676169Y-81233359D01*
X128724933Y-81205685D01*
X128734189Y-81202600D01*
X128737194Y-81198726D01*
X128739200Y-81197589D01*
X128740044Y-81195054D01*
X128742274Y-81192181D01*
X128842030Y-81192181D01*
X128859143Y-81226409D01*
X128895448Y-81238511D01*
X128914264Y-81233359D01*
X128963026Y-81205686D01*
X128972283Y-81202601D01*
X128975289Y-81198727D01*
X128977295Y-81197589D01*
X128978139Y-81195054D01*
X128984244Y-81187189D01*
X129004001Y-81141867D01*
X129009527Y-81136342D01*
X129012142Y-81123194D01*
X129013207Y-81120752D01*
X129012844Y-81119664D01*
X129013333Y-81117208D01*
X129011916Y-80950542D01*
X129127619Y-80950542D01*
X129130840Y-81087656D01*
X129127745Y-81096943D01*
X129131369Y-81110181D01*
X129131425Y-81112533D01*
X129132235Y-81113343D01*
X129132897Y-81115759D01*
X129155234Y-81155119D01*
X129155234Y-81160152D01*
X129166073Y-81176373D01*
X129168475Y-81178452D01*
X129168667Y-81178790D01*
X129168989Y-81178897D01*
X129186201Y-81193795D01*
X129187466Y-81197589D01*
X129202878Y-81209550D01*
X129205949Y-81210888D01*
X129206103Y-81211022D01*
X129206255Y-81211022D01*
X129248199Y-81229307D01*
X129253723Y-81234831D01*
X129266868Y-81237445D01*
X129269312Y-81238511D01*
X129270400Y-81238148D01*
X129272857Y-81238637D01*
X129363016Y-81235636D01*
X129371639Y-81238511D01*
X129384781Y-81234912D01*
X129387229Y-81234831D01*
X129388039Y-81234020D01*
X129390455Y-81233359D01*
X129393423Y-81231674D01*
X129396580Y-81234831D01*
X129434848Y-81234831D01*
X129461908Y-81207771D01*
X129465714Y-81188637D01*
X129465515Y-81161502D01*
X129465588Y-81161284D01*
X129465512Y-81161132D01*
X129463794Y-80926732D01*
X129579999Y-80926732D01*
X129582753Y-80975037D01*
X129580950Y-80984054D01*
X129583484Y-80987855D01*
X129583805Y-80993485D01*
X129594101Y-81003781D01*
X129602177Y-81015895D01*
X129609085Y-81018765D01*
X129610865Y-81020545D01*
X129613369Y-81020545D01*
X129620193Y-81023380D01*
X129820521Y-81060426D01*
X129821235Y-81099748D01*
X129809217Y-81127317D01*
X129788810Y-81138898D01*
X129717707Y-81141264D01*
X129657353Y-81114954D01*
X129621048Y-81127056D01*
X129603935Y-81161284D01*
X129616037Y-81197589D01*
X129631449Y-81209550D01*
X129676770Y-81229307D01*
X129682294Y-81234831D01*
X129695439Y-81237445D01*
X129697883Y-81238511D01*
X129698971Y-81238148D01*
X129701428Y-81238637D01*
X129791587Y-81235636D01*
X129800210Y-81238511D01*
X129813352Y-81234912D01*
X129815800Y-81234831D01*
X129816610Y-81234020D01*
X129819026Y-81233359D01*
X129867790Y-81205685D01*
X129877046Y-81202600D01*
X129880051Y-81198726D01*
X129882057Y-81197589D01*
X129882901Y-81195054D01*
X129885131Y-81192181D01*
X129984887Y-81192181D01*
X130002000Y-81226409D01*
X130038305Y-81238511D01*
X130057121Y-81233359D01*
X130105883Y-81205686D01*
X130115140Y-81202601D01*
X130118146Y-81198727D01*
X130120152Y-81197589D01*
X130120996Y-81195054D01*
X130123226Y-81192181D01*
X130222982Y-81192181D01*
X130240096Y-81226410D01*
X130276400Y-81238511D01*
X130310629Y-81221397D01*
X130320290Y-81204448D01*
X130355843Y-81095256D01*
X130524539Y-81092760D01*
X130568416Y-81221397D01*
X130602645Y-81238511D01*
X130638949Y-81226410D01*
X130656063Y-81192181D01*
X130653623Y-81172826D01*
X130604764Y-81029582D01*
X130604764Y-81026646D01*
X130603243Y-81025125D01*
X130544471Y-80852821D01*
X131056251Y-80852821D01*
X131059102Y-80872121D01*
X131175418Y-81187610D01*
X131175240Y-81188027D01*
X131175634Y-81190145D01*
X131175298Y-81191119D01*
X131176151Y-81192920D01*
X131178812Y-81207206D01*
X131226661Y-81318414D01*
X131226662Y-81326820D01*
X131236819Y-81342022D01*
X131237071Y-81342607D01*
X131237265Y-81342690D01*
X131237500Y-81343041D01*
X131257627Y-81360461D01*
X131258892Y-81364254D01*
X131274304Y-81376215D01*
X131277378Y-81377555D01*
X131277532Y-81377688D01*
X131277683Y-81377688D01*
X131340739Y-81405178D01*
X131377044Y-81393077D01*
X131394158Y-81358849D01*
X131382057Y-81322544D01*
X131366645Y-81310583D01*
X131330506Y-81294828D01*
X131316533Y-81282734D01*
X131277204Y-81191331D01*
X131335750Y-81021970D01*
X131460951Y-81021970D01*
X131463763Y-81088884D01*
X131461077Y-81096943D01*
X131464650Y-81109993D01*
X131464757Y-81112533D01*
X131465567Y-81113343D01*
X131466229Y-81115759D01*
X131488566Y-81155119D01*
X131488566Y-81160152D01*
X131499405Y-81176373D01*
X131501807Y-81178452D01*
X131501999Y-81178790D01*
X131502321Y-81178897D01*
X131519533Y-81193795D01*
X131520798Y-81197589D01*
X131536210Y-81209550D01*
X131539281Y-81210888D01*
X131539435Y-81211022D01*
X131539587Y-81211022D01*
X131581531Y-81229307D01*
X131587055Y-81234831D01*
X131600200Y-81237445D01*
X131602644Y-81238511D01*
X131603732Y-81238148D01*
X131606189Y-81238637D01*
X131815799Y-81234831D01*
X131842859Y-81207771D01*
X131846665Y-81188637D01*
X131842859Y-80669503D01*
X131815799Y-80642443D01*
X131796665Y-80638637D01*
X131635951Y-80641929D01*
X131626453Y-80638763D01*
X131613189Y-80642395D01*
X131610864Y-80642443D01*
X131610052Y-80643254D01*
X131607637Y-80643916D01*
X131568278Y-80666253D01*
X131563245Y-80666253D01*
X131547024Y-80677092D01*
X131544943Y-80679495D01*
X131544606Y-80679687D01*
X131544498Y-80680009D01*
X131529603Y-80697218D01*
X131525810Y-80698483D01*
X131513849Y-80713895D01*
X131512509Y-80716967D01*
X131512376Y-80717122D01*
X131512376Y-80717273D01*
X131494090Y-80759216D01*
X131488566Y-80764741D01*
X131485951Y-80777886D01*
X131484886Y-80780330D01*
X131485248Y-80781418D01*
X131484760Y-80783875D01*
X131487269Y-80827888D01*
X131484886Y-80835039D01*
X131488411Y-80847910D01*
X131488566Y-80850628D01*
X131489377Y-80851439D01*
X131490039Y-80853855D01*
X131512376Y-80893214D01*
X131512376Y-80898246D01*
X131523214Y-80914468D01*
X131523683Y-80914873D01*
X131523216Y-80915186D01*
X131505793Y-80935314D01*
X131501999Y-80936579D01*
X131490038Y-80951991D01*
X131488698Y-80955064D01*
X131488567Y-80955216D01*
X131488566Y-80955365D01*
X131470281Y-80997311D01*
X131464757Y-81002836D01*
X131462141Y-81015983D01*
X131461077Y-81018426D01*
X131461439Y-81019513D01*
X131460951Y-81021970D01*
X131335750Y-81021970D01*
X131394222Y-80852821D01*
X131377840Y-80818237D01*
X131341802Y-80805366D01*
X131307217Y-80821748D01*
X131297197Y-80838487D01*
X131225691Y-81045339D01*
X131143256Y-80821748D01*
X131108672Y-80805366D01*
X131072633Y-80818237D01*
X131056251Y-80852821D01*
X130544471Y-80852821D01*
X130488353Y-80688296D01*
X130489397Y-80685093D01*
X130482677Y-80671653D01*
X130477296Y-80655877D01*
X130473953Y-80654205D01*
X130472283Y-80650865D01*
X130457246Y-80645852D01*
X130443067Y-80638763D01*
X130439522Y-80639944D01*
X130435979Y-80638763D01*
X130421802Y-80645850D01*
X130406763Y-80650864D01*
X130405092Y-80654206D01*
X130401750Y-80655877D01*
X130392089Y-80672826D01*
X130278137Y-81022789D01*
X130274281Y-81026646D01*
X130274281Y-81034633D01*
X130222982Y-81192181D01*
X130123226Y-81192181D01*
X130127101Y-81187189D01*
X130146858Y-81141867D01*
X130152384Y-81136342D01*
X130154999Y-81123194D01*
X130156064Y-81120752D01*
X130155701Y-81119664D01*
X130156190Y-81117208D01*
X130152384Y-80669503D01*
X130125324Y-80642443D01*
X130087056Y-80642443D01*
X130059996Y-80669503D01*
X130056190Y-80688637D01*
X130059678Y-81098954D01*
X130047313Y-81127317D01*
X129996989Y-81155876D01*
X129984887Y-81192181D01*
X129885131Y-81192181D01*
X129889007Y-81187188D01*
X129908763Y-81141866D01*
X129914288Y-81136342D01*
X129916903Y-81123194D01*
X129917968Y-81120752D01*
X129917605Y-81119664D01*
X129918094Y-81117208D01*
X129916267Y-81016642D01*
X129917143Y-81012267D01*
X129916161Y-81010795D01*
X129914746Y-80932851D01*
X129917968Y-80923187D01*
X129914329Y-80909902D01*
X129914288Y-80907598D01*
X129913476Y-80906786D01*
X129912815Y-80904371D01*
X129885142Y-80855608D01*
X129882057Y-80846352D01*
X129878183Y-80843346D01*
X129877046Y-80841341D01*
X129874511Y-80840496D01*
X129866645Y-80834391D01*
X129821324Y-80814634D01*
X129815800Y-80809110D01*
X129802652Y-80806494D01*
X129800210Y-80805430D01*
X129799122Y-80805792D01*
X129796666Y-80805304D01*
X129706505Y-80808304D01*
X129697883Y-80805430D01*
X129684743Y-80809028D01*
X129682294Y-80809110D01*
X129681482Y-80809921D01*
X129679067Y-80810583D01*
X129630305Y-80838254D01*
X129621049Y-80841340D01*
X129618042Y-80845213D01*
X129616037Y-80846352D01*
X129615192Y-80848886D01*
X129609088Y-80856752D01*
X129589329Y-80902073D01*
X129583805Y-80907598D01*
X129581190Y-80920743D01*
X129580125Y-80923187D01*
X129580487Y-80924275D01*
X129579999Y-80926732D01*
X129463794Y-80926732D01*
X129463501Y-80886830D01*
X129465588Y-80882657D01*
X129463423Y-80876162D01*
X129461908Y-80669503D01*
X129434848Y-80642443D01*
X129396580Y-80642443D01*
X129369520Y-80669503D01*
X129365714Y-80688637D01*
X129366569Y-80805354D01*
X129277934Y-80808304D01*
X129269312Y-80805430D01*
X129256172Y-80809028D01*
X129253723Y-80809110D01*
X129252911Y-80809921D01*
X129250496Y-80810583D01*
X129211137Y-80832919D01*
X129206103Y-80832919D01*
X129189882Y-80843758D01*
X129187801Y-80846161D01*
X129187466Y-80846352D01*
X129187359Y-80846672D01*
X129172460Y-80863886D01*
X129168667Y-80865151D01*
X129156706Y-80880563D01*
X129155366Y-80883636D01*
X129155234Y-80883789D01*
X129155234Y-80883939D01*
X129136949Y-80925883D01*
X129131425Y-80931408D01*
X129128809Y-80944555D01*
X129127745Y-80946998D01*
X129128107Y-80948085D01*
X129127619Y-80950542D01*
X129011916Y-80950542D01*
X129009527Y-80669503D01*
X128982467Y-80642443D01*
X128944199Y-80642443D01*
X128917139Y-80669503D01*
X128913333Y-80688637D01*
X128916821Y-81098954D01*
X128904456Y-81127317D01*
X128854132Y-81155876D01*
X128842030Y-81192181D01*
X128742274Y-81192181D01*
X128746150Y-81187188D01*
X128765906Y-81141866D01*
X128771431Y-81136342D01*
X128774046Y-81123194D01*
X128775111Y-81120752D01*
X128774748Y-81119664D01*
X128775237Y-81117208D01*
X128772727Y-81073194D01*
X128775111Y-81066044D01*
X128771585Y-81053172D01*
X128771431Y-81050455D01*
X128770619Y-81049643D01*
X128769958Y-81047228D01*
X128742285Y-80998465D01*
X128739200Y-80989209D01*
X128735326Y-80986203D01*
X128734189Y-80984198D01*
X128731654Y-80983353D01*
X128723788Y-80977248D01*
X128678467Y-80957491D01*
X128672943Y-80951967D01*
X128659795Y-80949351D01*
X128657353Y-80948287D01*
X128656265Y-80948649D01*
X128653809Y-80948161D01*
X128551478Y-80950979D01*
X128534304Y-80943492D01*
X128546018Y-80916624D01*
X128566426Y-80905042D01*
X128637528Y-80902676D01*
X128697883Y-80928987D01*
X128734188Y-80916885D01*
X128751302Y-80882657D01*
X128739200Y-80846352D01*
X128723788Y-80834391D01*
X128678467Y-80814634D01*
X128672943Y-80809110D01*
X128659795Y-80806494D01*
X128657353Y-80805430D01*
X128656265Y-80805792D01*
X128653809Y-80805304D01*
X128563648Y-80808304D01*
X128555026Y-80805430D01*
X128541886Y-80809028D01*
X128539437Y-80809110D01*
X128538625Y-80809921D01*
X128536210Y-80810583D01*
X128487448Y-80838254D01*
X128478192Y-80841340D01*
X128475185Y-80845213D01*
X128473180Y-80846352D01*
X128472335Y-80848886D01*
X128466231Y-80856752D01*
X128446472Y-80902073D01*
X128440948Y-80907598D01*
X128438333Y-80920743D01*
X128437268Y-80923187D01*
X128437630Y-80924275D01*
X128437142Y-80926732D01*
X128151239Y-80926732D01*
X128133038Y-80903973D01*
X128315800Y-80901498D01*
X128342860Y-80874438D01*
X128342860Y-80836170D01*
X128315800Y-80809110D01*
X128296666Y-80805304D01*
X128035303Y-80808843D01*
X128021267Y-80807159D01*
X128018839Y-80809066D01*
X128015627Y-80809110D01*
X128004051Y-80820685D01*
X127991176Y-80830802D01*
X127990799Y-80833937D01*
X127988567Y-80836170D01*
X127988567Y-80852541D01*
X127986616Y-80868798D01*
X127892627Y-80868798D01*
X127885142Y-80855608D01*
X127882057Y-80846352D01*
X127878183Y-80843346D01*
X127877046Y-80841341D01*
X127874511Y-80840496D01*
X127866645Y-80834391D01*
X127821324Y-80814634D01*
X127815800Y-80809110D01*
X127802652Y-80806494D01*
X127800210Y-80805430D01*
X127799122Y-80805792D01*
X127796666Y-80805304D01*
X127706505Y-80808304D01*
X127697883Y-80805430D01*
X127684743Y-80809028D01*
X127682294Y-80809110D01*
X127681482Y-80809921D01*
X127679067Y-80810583D01*
X127630305Y-80838254D01*
X127621049Y-80841340D01*
X127618042Y-80845213D01*
X127616037Y-80846352D01*
X127615192Y-80848886D01*
X127609088Y-80856752D01*
X127589329Y-80902073D01*
X127583805Y-80907598D01*
X127581190Y-80920743D01*
X127580125Y-80923187D01*
X127580487Y-80924275D01*
X127579999Y-80926732D01*
X127462885Y-80926732D01*
X127461908Y-80836170D01*
X127434848Y-80809110D01*
X127396580Y-80809110D01*
X127377114Y-80828575D01*
X127345134Y-80814634D01*
X127339610Y-80809110D01*
X127326462Y-80806494D01*
X127324020Y-80805430D01*
X127322932Y-80805792D01*
X127320476Y-80805304D01*
X127253723Y-80809110D01*
X127226663Y-80836170D01*
X124714921Y-80836170D01*
X124714921Y-80583081D01*
X134044532Y-80583081D01*
X134044532Y-82265832D01*
G37*
D10*
G36*
X135716950Y-82135930D02*
G01*
X134725681Y-82135930D01*
X134725681Y-81521247D01*
X134836792Y-81521247D01*
X134842501Y-81883281D01*
X134858758Y-81907612D01*
X134905313Y-81948943D01*
X134910271Y-81958859D01*
X134927622Y-81968750D01*
X134930709Y-81971490D01*
X134932429Y-81971490D01*
X134935694Y-81973351D01*
X135066971Y-82012514D01*
X135073567Y-82019110D01*
X135102268Y-82024819D01*
X135107421Y-82024581D01*
X135107584Y-82024630D01*
X135107707Y-82024568D01*
X135184950Y-82021010D01*
X135192190Y-82024630D01*
X135221223Y-82020970D01*
X135355278Y-81971491D01*
X135369065Y-81971491D01*
X135386078Y-81960122D01*
X135389502Y-81958859D01*
X135390270Y-81957321D01*
X135393396Y-81955233D01*
X135476152Y-81866482D01*
X135484741Y-81863620D01*
X135502683Y-81840502D01*
X135504816Y-81835743D01*
X135504892Y-81835662D01*
X135504892Y-81835574D01*
X135539263Y-81758903D01*
X135543481Y-81756373D01*
X135555981Y-81729913D01*
X135595008Y-81555069D01*
X135600130Y-81549948D01*
X135605839Y-81521247D01*
X135601639Y-81395064D01*
X135605022Y-81389428D01*
X135603600Y-81360200D01*
X135556038Y-81188575D01*
X135558031Y-81182597D01*
X135550302Y-81154373D01*
X135504892Y-81072395D01*
X135504892Y-81063975D01*
X135488634Y-81039643D01*
X135395521Y-80952818D01*
X135389502Y-80940779D01*
X135371771Y-80930671D01*
X135369064Y-80928147D01*
X135367343Y-80928147D01*
X135364080Y-80926287D01*
X135232802Y-80887123D01*
X135226207Y-80880528D01*
X135197506Y-80874819D01*
X135062266Y-80879319D01*
X135049332Y-80875008D01*
X135029620Y-80880405D01*
X135025948Y-80880528D01*
X135024731Y-80881744D01*
X135021108Y-80882737D01*
X134902752Y-80948298D01*
X134884600Y-81002755D01*
X134910271Y-81054097D01*
X134964728Y-81072249D01*
X134992952Y-81064520D01*
X135065260Y-81024465D01*
X135173597Y-81020860D01*
X135173789Y-81020970D01*
X135294222Y-81056898D01*
X135368504Y-81126164D01*
X135368519Y-81126217D01*
X135410236Y-81201528D01*
X135410459Y-81206104D01*
X135456827Y-81373420D01*
X135455839Y-81378390D01*
X135459861Y-81499280D01*
X135458078Y-81503057D01*
X135420138Y-81673027D01*
X135416138Y-81678182D01*
X135381822Y-81754727D01*
X135307511Y-81834419D01*
X135197864Y-81874890D01*
X135197506Y-81874819D01*
X135124374Y-81878187D01*
X135005028Y-81842583D01*
X134986341Y-81825992D01*
X134982689Y-81594400D01*
X135130969Y-81590538D01*
X135171559Y-81549948D01*
X135171559Y-81492546D01*
X135130969Y-81451956D01*
X135102268Y-81446247D01*
X134883091Y-81451956D01*
X134842501Y-81492546D01*
X134836792Y-81521247D01*
X134725681Y-81521247D01*
X134725681Y-80763708D01*
X135716950Y-80763708D01*
X135716950Y-82135930D01*
G37*
G36*
X131739331Y-78545930D02*
G01*
X126468057Y-78545930D01*
X126468057Y-77426356D01*
X126579168Y-77426356D01*
X126579168Y-77483758D01*
X126619758Y-77524348D01*
X126677160Y-77524348D01*
X126701492Y-77508090D01*
X126731526Y-77474258D01*
X126838575Y-77434747D01*
X126838935Y-77434819D01*
X126912066Y-77431450D01*
X127030889Y-77466898D01*
X127105171Y-77536164D01*
X127105186Y-77536217D01*
X127146903Y-77611528D01*
X127147126Y-77616104D01*
X127193494Y-77783420D01*
X127192506Y-77788390D01*
X127196528Y-77909280D01*
X127194745Y-77913057D01*
X127156805Y-78083027D01*
X127152805Y-78088182D01*
X127118489Y-78164727D01*
X127044178Y-78244419D01*
X126934531Y-78284890D01*
X126934173Y-78284819D01*
X126861041Y-78288187D01*
X126741695Y-78252583D01*
X126677161Y-78195289D01*
X126619758Y-78195289D01*
X126579168Y-78235878D01*
X126579168Y-78293281D01*
X126595425Y-78317612D01*
X126641980Y-78358943D01*
X126646938Y-78368859D01*
X126664289Y-78378750D01*
X126667376Y-78381490D01*
X126669096Y-78381490D01*
X126672361Y-78383351D01*
X126803638Y-78422514D01*
X126810234Y-78429110D01*
X126838935Y-78434819D01*
X126844088Y-78434581D01*
X126844251Y-78434630D01*
X126844374Y-78434568D01*
X126921617Y-78431010D01*
X126928857Y-78434630D01*
X126957890Y-78430970D01*
X127091945Y-78381491D01*
X127105732Y-78381491D01*
X127122745Y-78370122D01*
X127126169Y-78368859D01*
X127126937Y-78367321D01*
X127130063Y-78365233D01*
X127212819Y-78276482D01*
X127221408Y-78273620D01*
X127239350Y-78250502D01*
X127241483Y-78245743D01*
X127241559Y-78245662D01*
X127241559Y-78245574D01*
X127275930Y-78168903D01*
X127280148Y-78166373D01*
X127292648Y-78139913D01*
X127331675Y-77965069D01*
X127336797Y-77959948D01*
X127342506Y-77931247D01*
X127338306Y-77805064D01*
X127341689Y-77799428D01*
X127340267Y-77770200D01*
X127292705Y-77598575D01*
X127294698Y-77592597D01*
X127286969Y-77564373D01*
X127241559Y-77482395D01*
X127241559Y-77473975D01*
X127225301Y-77449643D01*
X127200328Y-77426356D01*
X127579168Y-77426356D01*
X127579168Y-77483758D01*
X127619758Y-77524348D01*
X127677160Y-77524348D01*
X127701492Y-77508090D01*
X127731526Y-77474258D01*
X127838575Y-77434747D01*
X127838935Y-77434819D01*
X127912066Y-77431450D01*
X128030889Y-77466898D01*
X128105171Y-77536164D01*
X128105186Y-77536217D01*
X128146903Y-77611528D01*
X128147126Y-77616104D01*
X128193494Y-77783420D01*
X128192506Y-77788390D01*
X128196528Y-77909280D01*
X128194745Y-77913057D01*
X128156805Y-78083027D01*
X128152805Y-78088182D01*
X128118489Y-78164727D01*
X128044178Y-78244419D01*
X127934531Y-78284890D01*
X127934173Y-78284819D01*
X127861041Y-78288187D01*
X127741695Y-78252583D01*
X127677161Y-78195289D01*
X127619758Y-78195289D01*
X127579168Y-78235878D01*
X127579168Y-78293281D01*
X127595425Y-78317612D01*
X127641980Y-78358943D01*
X127646938Y-78368859D01*
X127664289Y-78378750D01*
X127667376Y-78381490D01*
X127669096Y-78381490D01*
X127672361Y-78383351D01*
X127803638Y-78422514D01*
X127810234Y-78429110D01*
X127838935Y-78434819D01*
X127844088Y-78434581D01*
X127844251Y-78434630D01*
X127844374Y-78434568D01*
X127921617Y-78431010D01*
X127928857Y-78434630D01*
X127957890Y-78430970D01*
X128091945Y-78381491D01*
X128105732Y-78381491D01*
X128122745Y-78370122D01*
X128126169Y-78368859D01*
X128126937Y-78367321D01*
X128130063Y-78365233D01*
X128161874Y-78331118D01*
X129722025Y-78331118D01*
X129722025Y-78388520D01*
X129762615Y-78429110D01*
X129791316Y-78434819D01*
X130296207Y-78429110D01*
X130336797Y-78388520D01*
X130342506Y-78359819D01*
X130336956Y-77359819D01*
X130668696Y-77359819D01*
X130674405Y-78388520D01*
X130714995Y-78429110D01*
X130772397Y-78429110D01*
X130812987Y-78388520D01*
X130818696Y-78359819D01*
X130818537Y-78331118D01*
X131007739Y-78331118D01*
X131007739Y-78388520D01*
X131048329Y-78429110D01*
X131077030Y-78434819D01*
X131581921Y-78429110D01*
X131622511Y-78388520D01*
X131628220Y-78359819D01*
X131622511Y-77331118D01*
X131581921Y-77290528D01*
X131524519Y-77290528D01*
X131483929Y-77331118D01*
X131478220Y-77359819D01*
X131483357Y-78285608D01*
X131048329Y-78290528D01*
X131007739Y-78331118D01*
X130818537Y-78331118D01*
X130812987Y-77331118D01*
X130772397Y-77290528D01*
X130714995Y-77290528D01*
X130674405Y-77331118D01*
X130668696Y-77359819D01*
X130336956Y-77359819D01*
X130336797Y-77331118D01*
X130296207Y-77290528D01*
X130238805Y-77290528D01*
X130198215Y-77331118D01*
X130192506Y-77359819D01*
X130197643Y-78285608D01*
X129762615Y-78290528D01*
X129722025Y-78331118D01*
X128161874Y-78331118D01*
X128212819Y-78276482D01*
X128221408Y-78273620D01*
X128239350Y-78250502D01*
X128241483Y-78245743D01*
X128241559Y-78245662D01*
X128241559Y-78245574D01*
X128275930Y-78168903D01*
X128280148Y-78166373D01*
X128292648Y-78139913D01*
X128331675Y-77965069D01*
X128336797Y-77959948D01*
X128338743Y-77950165D01*
X128626787Y-77950165D01*
X128626787Y-78007567D01*
X128667377Y-78048157D01*
X128696078Y-78053866D01*
X129486683Y-78048157D01*
X129527273Y-78007567D01*
X129527273Y-77950165D01*
X129486683Y-77909575D01*
X129457982Y-77903866D01*
X128667377Y-77909575D01*
X128626787Y-77950165D01*
X128338743Y-77950165D01*
X128342506Y-77931247D01*
X128338306Y-77805064D01*
X128341689Y-77799428D01*
X128340267Y-77770200D01*
X128292705Y-77598575D01*
X128294698Y-77592597D01*
X128286969Y-77564373D01*
X128241559Y-77482395D01*
X128241559Y-77473975D01*
X128225301Y-77449643D01*
X128132188Y-77362818D01*
X128126169Y-77350779D01*
X128108438Y-77340671D01*
X128105731Y-77338147D01*
X128104010Y-77338147D01*
X128100747Y-77336287D01*
X127969469Y-77297123D01*
X127962874Y-77290528D01*
X127934173Y-77284819D01*
X127929019Y-77285056D01*
X127928857Y-77285008D01*
X127928733Y-77285069D01*
X127851490Y-77288627D01*
X127844251Y-77285008D01*
X127815217Y-77288668D01*
X127681160Y-77338148D01*
X127667376Y-77338148D01*
X127650364Y-77349514D01*
X127646938Y-77350779D01*
X127646168Y-77352317D01*
X127643045Y-77354405D01*
X127579168Y-77426356D01*
X127200328Y-77426356D01*
X127132188Y-77362818D01*
X127126169Y-77350779D01*
X127108438Y-77340671D01*
X127105731Y-77338147D01*
X127104010Y-77338147D01*
X127100747Y-77336287D01*
X126969469Y-77297123D01*
X126962874Y-77290528D01*
X126934173Y-77284819D01*
X126929019Y-77285056D01*
X126928857Y-77285008D01*
X126928733Y-77285069D01*
X126851490Y-77288627D01*
X126844251Y-77285008D01*
X126815217Y-77288668D01*
X126681160Y-77338148D01*
X126667376Y-77338148D01*
X126650364Y-77349514D01*
X126646938Y-77350779D01*
X126646168Y-77352317D01*
X126643045Y-77354405D01*
X126579168Y-77426356D01*
X126468057Y-77426356D01*
X126468057Y-77173708D01*
X131739331Y-77173708D01*
X131739331Y-78545930D01*
G37*
G36*
X134473361Y-86176313D02*
G01*
X134330090Y-86179379D01*
X134328842Y-86178668D01*
X134208408Y-86142739D01*
X134134126Y-86073472D01*
X134134112Y-86073420D01*
X134092394Y-85998108D01*
X134092172Y-85993533D01*
X134045803Y-85826215D01*
X134046792Y-85821247D01*
X134042769Y-85700356D01*
X134044553Y-85696580D01*
X134082492Y-85526609D01*
X134086493Y-85521455D01*
X134120808Y-85444909D01*
X134195119Y-85365217D01*
X134304765Y-85324747D01*
X134305125Y-85324819D01*
X134468616Y-85321320D01*
X134473361Y-86176313D01*
G37*
G36*
X134729331Y-86435930D02*
G01*
X132600914Y-86435930D01*
X132600914Y-85840165D01*
X132712025Y-85840165D01*
X132712025Y-85897567D01*
X132752615Y-85938157D01*
X132781316Y-85943866D01*
X133571921Y-85938157D01*
X133612511Y-85897567D01*
X133612511Y-85840165D01*
X133571921Y-85799575D01*
X133543220Y-85793866D01*
X132752615Y-85799575D01*
X132712025Y-85840165D01*
X132600914Y-85840165D01*
X132600914Y-85678390D01*
X133896792Y-85678390D01*
X133900990Y-85804571D01*
X133897609Y-85810208D01*
X133899031Y-85839437D01*
X133946592Y-86011060D01*
X133944600Y-86017040D01*
X133952329Y-86045264D01*
X133997739Y-86127241D01*
X133997739Y-86135662D01*
X134013997Y-86159994D01*
X134107108Y-86246819D01*
X134113128Y-86258859D01*
X134130857Y-86268965D01*
X134133566Y-86271491D01*
X134135288Y-86271491D01*
X134138551Y-86273351D01*
X134269828Y-86312514D01*
X134276424Y-86319110D01*
X134305125Y-86324819D01*
X134571921Y-86319110D01*
X134612511Y-86278520D01*
X134618220Y-86249819D01*
X134612511Y-85221118D01*
X134571921Y-85180528D01*
X134543220Y-85174819D01*
X134319632Y-85179603D01*
X134310441Y-85175008D01*
X134281407Y-85178668D01*
X134147352Y-85228147D01*
X134133567Y-85228147D01*
X134116554Y-85239514D01*
X134113128Y-85240779D01*
X134112358Y-85242317D01*
X134109235Y-85244405D01*
X134026478Y-85333154D01*
X134017890Y-85336017D01*
X133999948Y-85359135D01*
X133997814Y-85363893D01*
X133997739Y-85363975D01*
X133997739Y-85364062D01*
X133963366Y-85440734D01*
X133959150Y-85443265D01*
X133946650Y-85469724D01*
X133907622Y-85644567D01*
X133902501Y-85649689D01*
X133896792Y-85678390D01*
X132600914Y-85678390D01*
X132600914Y-85063708D01*
X134729331Y-85063708D01*
X134729331Y-86435930D01*
G37*
G36*
X134726578Y-91515930D02*
G01*
X132831108Y-91515930D01*
X132831108Y-90324503D01*
X132942219Y-90324503D01*
X132945879Y-90353536D01*
X133277166Y-91330204D01*
X133275552Y-91335135D01*
X133285773Y-91355578D01*
X133293704Y-91378958D01*
X133298716Y-91381464D01*
X133301223Y-91386478D01*
X133323782Y-91393997D01*
X133345046Y-91404630D01*
X133350362Y-91402857D01*
X133355679Y-91404630D01*
X133376945Y-91393997D01*
X133399503Y-91386478D01*
X133402009Y-91381465D01*
X133407022Y-91378959D01*
X133421514Y-91353536D01*
X133569632Y-90901247D01*
X133894411Y-90901247D01*
X133899316Y-91130508D01*
X133894600Y-91144659D01*
X133900045Y-91164542D01*
X133900120Y-91168043D01*
X133901336Y-91169259D01*
X133902329Y-91172883D01*
X133947739Y-91254860D01*
X133947739Y-91263281D01*
X133963996Y-91287612D01*
X133967704Y-91290904D01*
X133967890Y-91291239D01*
X133968196Y-91291341D01*
X134005779Y-91324706D01*
X134007990Y-91331340D01*
X134031108Y-91349282D01*
X134035858Y-91351411D01*
X134035947Y-91351490D01*
X134036033Y-91351490D01*
X134122190Y-91390114D01*
X134131186Y-91399110D01*
X134151086Y-91403068D01*
X134154570Y-91404630D01*
X134156202Y-91404086D01*
X134159887Y-91404819D01*
X134389148Y-91399913D01*
X134403299Y-91404630D01*
X134423182Y-91399184D01*
X134426683Y-91399110D01*
X134427899Y-91397893D01*
X134431523Y-91396901D01*
X134513501Y-91351491D01*
X134521922Y-91351491D01*
X134546254Y-91335232D01*
X134549544Y-91331525D01*
X134549879Y-91331340D01*
X134549981Y-91331033D01*
X134610130Y-91263281D01*
X134610129Y-91205878D01*
X134569540Y-91165289D01*
X134512137Y-91165290D01*
X134487805Y-91181548D01*
X134456380Y-91216945D01*
X134387606Y-91255041D01*
X134185889Y-91259357D01*
X134116801Y-91228385D01*
X134082285Y-91197741D01*
X134044188Y-91128966D01*
X134039872Y-90927249D01*
X134070844Y-90858161D01*
X134101487Y-90823645D01*
X134170262Y-90785548D01*
X134371979Y-90781232D01*
X134441067Y-90812204D01*
X134512137Y-90875299D01*
X134516104Y-90875299D01*
X134519175Y-90877812D01*
X134544304Y-90875299D01*
X134569540Y-90875299D01*
X134572344Y-90872494D01*
X134576292Y-90872100D01*
X134592282Y-90852556D01*
X134610129Y-90834710D01*
X134610129Y-90830744D01*
X134612642Y-90827673D01*
X134615467Y-90798546D01*
X134562511Y-90323096D01*
X134562511Y-90301118D01*
X134559756Y-90298363D01*
X134559311Y-90294366D01*
X134539773Y-90278380D01*
X134521921Y-90260528D01*
X134516680Y-90259485D01*
X134514884Y-90258016D01*
X134511163Y-90258388D01*
X134493220Y-90254819D01*
X133988329Y-90260528D01*
X133947739Y-90301118D01*
X133947739Y-90358520D01*
X133988329Y-90399110D01*
X134017030Y-90404819D01*
X134425599Y-90400199D01*
X134454411Y-90658873D01*
X134435678Y-90650475D01*
X134426683Y-90641480D01*
X134406782Y-90637521D01*
X134403299Y-90635960D01*
X134401666Y-90636503D01*
X134397982Y-90635771D01*
X134168720Y-90640676D01*
X134154570Y-90635960D01*
X134134686Y-90641405D01*
X134131186Y-90641480D01*
X134129969Y-90642696D01*
X134126346Y-90643689D01*
X134044366Y-90689100D01*
X134035947Y-90689100D01*
X134011616Y-90705357D01*
X134008324Y-90709064D01*
X134007990Y-90709250D01*
X134007887Y-90709556D01*
X133974522Y-90747139D01*
X133967890Y-90749350D01*
X133949948Y-90772468D01*
X133947818Y-90777218D01*
X133947739Y-90777308D01*
X133947739Y-90777395D01*
X133909115Y-90863550D01*
X133900120Y-90872546D01*
X133896161Y-90892446D01*
X133894600Y-90895930D01*
X133895143Y-90897562D01*
X133894411Y-90901247D01*
X133569632Y-90901247D01*
X133758507Y-90324503D01*
X133732836Y-90273160D01*
X133678379Y-90255008D01*
X133627037Y-90280680D01*
X133612545Y-90306102D01*
X133352087Y-91101426D01*
X133073689Y-90280679D01*
X133022346Y-90255008D01*
X132967890Y-90273160D01*
X132942219Y-90324503D01*
X132831108Y-90324503D01*
X132831108Y-90143708D01*
X134726578Y-90143708D01*
X134726578Y-91515930D01*
G37*
%LPC*%
D12*
%TO.C,J1*%
X132176000Y-83113500D03*
X126396000Y-83113500D03*
D13*
X133606000Y-83643500D03*
D14*
X133606000Y-79463500D03*
D13*
X124966000Y-83643500D03*
D14*
X124966000Y-79463500D03*
%TD*%
D15*
%TO.C,J3*%
X122790000Y-83190000D03*
X122790000Y-85740000D03*
X122790000Y-88275000D03*
X122790000Y-90810000D03*
%TD*%
D16*
%TO.C,J2*%
X135800000Y-90830000D03*
X135800000Y-88280000D03*
D15*
X135800000Y-85745000D03*
X135800000Y-83210000D03*
%TD*%
%LPD*%
M02*
