%TF.GenerationSoftware,KiCad,Pcbnew,(6.0.0)*%
%TF.CreationDate,2023-03-15T22:53:22-05:00*%
%TF.ProjectId,udb-s,7564622d-732e-46b6-9963-61645f706362,rev?*%
%TF.SameCoordinates,Original*%
%TF.FileFunction,Soldermask,Top*%
%TF.FilePolarity,Negative*%
%FSLAX46Y46*%
G04 Gerber Fmt 4.6, Leading zero omitted, Abs format (unit mm)*
G04 Created by KiCad (PCBNEW (6.0.0)) date 2023-03-15 22:53:22*
%MOMM*%
%LPD*%
G01*
G04 APERTURE LIST*
G04 Aperture macros list*
%AMRoundRect*
0 Rectangle with rounded corners*
0 $1 Rounding radius*
0 $2 $3 $4 $5 $6 $7 $8 $9 X,Y pos of 4 corners*
0 Add a 4 corners polygon primitive as box body*
4,1,4,$2,$3,$4,$5,$6,$7,$8,$9,$2,$3,0*
0 Add four circle primitives for the rounded corners*
1,1,$1+$1,$2,$3*
1,1,$1+$1,$4,$5*
1,1,$1+$1,$6,$7*
1,1,$1+$1,$8,$9*
0 Add four rect primitives between the rounded corners*
20,1,$1+$1,$2,$3,$4,$5,0*
20,1,$1+$1,$4,$5,$6,$7,0*
20,1,$1+$1,$6,$7,$8,$9,0*
20,1,$1+$1,$8,$9,$2,$3,0*%
%AMOutline4P*
0 Free polygon, 4 corners , with rotation*
0 The origin of the aperture is its center*
0 number of corners: always 4*
0 $1 to $8 corner X, Y*
0 $9 Rotation angle, in degrees counterclockwise*
0 create outline with 4 corners*
4,1,4,$1,$2,$3,$4,$5,$6,$7,$8,$1,$2,$9*%
G04 Aperture macros list end*
%ADD10RoundRect,0.218750X-0.381250X0.218750X-0.381250X-0.218750X0.381250X-0.218750X0.381250X0.218750X0*%
%ADD11RoundRect,0.135000X-0.185000X0.135000X-0.185000X-0.135000X0.185000X-0.135000X0.185000X0.135000X0*%
%ADD12RoundRect,0.250000X-0.375000X-0.625000X0.375000X-0.625000X0.375000X0.625000X-0.375000X0.625000X0*%
%ADD13RoundRect,0.125000X0.000000X-0.150000X0.000000X-0.150000X0.000000X0.150000X0.000000X0.150000X0*%
%ADD14R,0.250000X0.550000*%
%ADD15R,0.300000X0.550000*%
%ADD16C,0.650000*%
%ADD17RoundRect,0.060000X0.240000X0.665000X-0.240000X0.665000X-0.240000X-0.665000X0.240000X-0.665000X0*%
%ADD18RoundRect,0.060000X0.090000X0.665000X-0.090000X0.665000X-0.090000X-0.665000X0.090000X-0.665000X0*%
%ADD19O,1.300000X1.700000*%
%ADD20O,1.100000X2.200000*%
%ADD21R,0.600000X0.700000*%
%ADD22R,2.540000X1.680000*%
%ADD23C,1.680000*%
%ADD24R,1.680000X1.680000*%
%ADD25Outline4P,-1.270000X-0.840000X1.270000X-0.840000X1.270000X0.840000X-1.270000X0.840000X0.000000*%
%ADD26RoundRect,0.135000X0.135000X0.185000X-0.135000X0.185000X-0.135000X-0.185000X0.135000X-0.185000X0*%
%ADD27Outline4P,-1.270000X-0.840000X1.270000X-0.840000X1.270000X0.840000X-1.270000X0.840000X180.000000*%
G04 APERTURE END LIST*
D10*
%TO.C,FB1*%
X124990000Y-86537500D03*
X124990000Y-88662500D03*
%TD*%
D11*
%TO.C,R2*%
X127100000Y-86760000D03*
X127100000Y-87780000D03*
%TD*%
D12*
%TO.C,F1*%
X130970000Y-90960000D03*
X133770000Y-90960000D03*
%TD*%
D13*
%TO.C,U1*%
X128290000Y-88165000D03*
D14*
X128790000Y-88165000D03*
D15*
X129290000Y-88165000D03*
D14*
X129790000Y-88165000D03*
X130290000Y-88165000D03*
X130290000Y-87395000D03*
X129790000Y-87395000D03*
D15*
X129290000Y-87395000D03*
D14*
X128790000Y-87395000D03*
X128290000Y-87395000D03*
%TD*%
D16*
%TO.C,J1*%
X126396000Y-83113500D03*
X132176000Y-83113500D03*
D17*
X132511000Y-84558500D03*
X131736000Y-84558500D03*
D18*
X130536000Y-84558500D03*
X129536000Y-84558500D03*
X129036000Y-84558500D03*
X128036000Y-84558500D03*
D17*
X126061000Y-84558500D03*
X126836000Y-84558500D03*
D18*
X127536000Y-84558500D03*
X128536000Y-84558500D03*
X130036000Y-84558500D03*
X131036000Y-84558500D03*
D19*
X133606000Y-79463500D03*
D20*
X133606000Y-83643500D03*
X124966000Y-83643500D03*
D19*
X124966000Y-79463500D03*
%TD*%
D21*
%TO.C,D1*%
X126010000Y-90330000D03*
X124610000Y-90330000D03*
%TD*%
D22*
%TO.C,J3*%
X121520000Y-83190000D03*
D23*
X122790000Y-83190000D03*
D22*
X121520000Y-85740000D03*
D23*
X122790000Y-85740000D03*
X122790000Y-88275000D03*
D22*
X121520000Y-88275000D03*
D24*
X122790000Y-90810000D03*
D25*
X121520000Y-90810000D03*
%TD*%
D26*
%TO.C,R1*%
X133450000Y-86720000D03*
X132430000Y-86720000D03*
%TD*%
D22*
%TO.C,J2*%
X137070000Y-90830000D03*
D23*
X135800000Y-90830000D03*
X135800000Y-88280000D03*
D22*
X137070000Y-88280000D03*
X137070000Y-85745000D03*
D23*
X135800000Y-85745000D03*
D27*
X137070000Y-83210000D03*
D24*
X135800000Y-83210000D03*
%TD*%
M02*
