M48
; DRILL file {KiCad (6.0.0)} date Wed Mar 15 22:53:22 2023
; FORMAT={-:-/ absolute / inch / decimal}
; #@! TF.CreationDate,2023-03-15T22:53:22-05:00
; #@! TF.GenerationSoftware,Kicad,Pcbnew,(6.0.0)
; #@! TF.FileFunction,Plated,1,2,PTH
FMAT,2
INCH
; #@! TA.AperFunction,Plated,PTH,ViaDrill
T1C0.0118
; #@! TA.AperFunction,Plated,PTH,ComponentDrill
T2C0.0236
; #@! TA.AperFunction,Plated,PTH,ComponentDrill
T3C0.0394
%
G90
G05
T1
X4.8717Y-3.326
X4.9471Y-3.3718
X5.0039Y-3.4921
X5.0499Y-3.5165
X5.0795Y-3.501
X5.0882Y-3.5587
X5.0898Y-3.2004
X5.0902Y-3.3992
X5.211Y-3.5677
X5.2531Y-3.3811
X5.3008Y-3.515
X5.3343Y-3.1748
T3
X4.7677Y-3.2756
X4.7677Y-3.3756
X4.7677Y-3.4756
X4.7677Y-3.5756
X4.8343Y-3.2752
X4.8343Y-3.3756
X4.8343Y-3.4754
X4.8343Y-3.5752
X5.3465Y-3.276
X5.3465Y-3.3758
X5.3465Y-3.4756
X5.3465Y-3.576
X5.413Y-3.2756
X5.413Y-3.3756
X5.413Y-3.4756
X5.413Y-3.5756
T2
G00X4.9199Y-3.1403
M15
G01X4.9199Y-3.1167
M16
G05
G00X4.9199Y-3.3147
M15
G01X4.9199Y-3.2714
M16
G05
G00X5.2601Y-3.1403
M15
G01X5.2601Y-3.1167
M16
G05
G00X5.2601Y-3.3147
M15
G01X5.2601Y-3.2714
M16
G05
T0
M30
