%TF.GenerationSoftware,KiCad,Pcbnew,(6.0.0)*%
%TF.CreationDate,2023-03-15T22:53:22-05:00*%
%TF.ProjectId,udb-s,7564622d-732e-46b6-9963-61645f706362,rev?*%
%TF.SameCoordinates,Original*%
%TF.FileFunction,Legend,Top*%
%TF.FilePolarity,Positive*%
%FSLAX46Y46*%
G04 Gerber Fmt 4.6, Leading zero omitted, Abs format (unit mm)*
G04 Created by KiCad (PCBNEW (6.0.0)) date 2023-03-15 22:53:22*
%MOMM*%
%LPD*%
G01*
G04 APERTURE LIST*
G04 Aperture macros list*
%AMRoundRect*
0 Rectangle with rounded corners*
0 $1 Rounding radius*
0 $2 $3 $4 $5 $6 $7 $8 $9 X,Y pos of 4 corners*
0 Add a 4 corners polygon primitive as box body*
4,1,4,$2,$3,$4,$5,$6,$7,$8,$9,$2,$3,0*
0 Add four circle primitives for the rounded corners*
1,1,$1+$1,$2,$3*
1,1,$1+$1,$4,$5*
1,1,$1+$1,$6,$7*
1,1,$1+$1,$8,$9*
0 Add four rect primitives between the rounded corners*
20,1,$1+$1,$2,$3,$4,$5,0*
20,1,$1+$1,$4,$5,$6,$7,0*
20,1,$1+$1,$6,$7,$8,$9,0*
20,1,$1+$1,$8,$9,$2,$3,0*%
%AMOutline4P*
0 Free polygon, 4 corners , with rotation*
0 The origin of the aperture is its center*
0 number of corners: always 4*
0 $1 to $8 corner X, Y*
0 $9 Rotation angle, in degrees counterclockwise*
0 create outline with 4 corners*
4,1,4,$1,$2,$3,$4,$5,$6,$7,$8,$1,$2,$9*%
G04 Aperture macros list end*
%ADD10C,0.150000*%
%ADD11C,0.120000*%
%ADD12C,0.400000*%
%ADD13RoundRect,0.218750X-0.381250X0.218750X-0.381250X-0.218750X0.381250X-0.218750X0.381250X0.218750X0*%
%ADD14RoundRect,0.135000X-0.185000X0.135000X-0.185000X-0.135000X0.185000X-0.135000X0.185000X0.135000X0*%
%ADD15RoundRect,0.250000X-0.375000X-0.625000X0.375000X-0.625000X0.375000X0.625000X-0.375000X0.625000X0*%
%ADD16RoundRect,0.125000X0.000000X-0.150000X0.000000X-0.150000X0.000000X0.150000X0.000000X0.150000X0*%
%ADD17R,0.250000X0.550000*%
%ADD18R,0.300000X0.550000*%
%ADD19C,0.650000*%
%ADD20RoundRect,0.060000X0.240000X0.665000X-0.240000X0.665000X-0.240000X-0.665000X0.240000X-0.665000X0*%
%ADD21RoundRect,0.060000X0.090000X0.665000X-0.090000X0.665000X-0.090000X-0.665000X0.090000X-0.665000X0*%
%ADD22O,1.300000X1.700000*%
%ADD23O,1.100000X2.200000*%
%ADD24R,0.600000X0.700000*%
%ADD25R,2.540000X1.680000*%
%ADD26C,1.680000*%
%ADD27R,1.680000X1.680000*%
%ADD28Outline4P,-1.270000X-0.840000X1.270000X-0.840000X1.270000X0.840000X-1.270000X0.840000X0.000000*%
%ADD29RoundRect,0.135000X0.135000X0.185000X-0.135000X0.185000X-0.135000X-0.185000X0.135000X-0.185000X0*%
%ADD30Outline4P,-1.270000X-0.840000X1.270000X-0.840000X1.270000X0.840000X-1.270000X0.840000X180.000000*%
G04 APERTURE END LIST*
D10*
%TO.C,FB1*%
X123632857Y-88266666D02*
X123632857Y-88533333D01*
X124051904Y-88533333D02*
X123251904Y-88533333D01*
X123251904Y-88152380D01*
X123632857Y-87580952D02*
X123670952Y-87466666D01*
X123709047Y-87428571D01*
X123785238Y-87390476D01*
X123899523Y-87390476D01*
X123975714Y-87428571D01*
X124013809Y-87466666D01*
X124051904Y-87542857D01*
X124051904Y-87847619D01*
X123251904Y-87847619D01*
X123251904Y-87580952D01*
X123290000Y-87504761D01*
X123328095Y-87466666D01*
X123404285Y-87428571D01*
X123480476Y-87428571D01*
X123556666Y-87466666D01*
X123594761Y-87504761D01*
X123632857Y-87580952D01*
X123632857Y-87847619D01*
X124051904Y-86628571D02*
X124051904Y-87085714D01*
X124051904Y-86857142D02*
X123251904Y-86857142D01*
X123366190Y-86933333D01*
X123442380Y-87009523D01*
X123480476Y-87085714D01*
%TO.C,R2*%
X127461904Y-85603333D02*
X127080952Y-85870000D01*
X127461904Y-86060476D02*
X126661904Y-86060476D01*
X126661904Y-85755714D01*
X126700000Y-85679523D01*
X126738095Y-85641428D01*
X126814285Y-85603333D01*
X126928571Y-85603333D01*
X127004761Y-85641428D01*
X127042857Y-85679523D01*
X127080952Y-85755714D01*
X127080952Y-86060476D01*
X126738095Y-85298571D02*
X126700000Y-85260476D01*
X126661904Y-85184285D01*
X126661904Y-84993809D01*
X126700000Y-84917619D01*
X126738095Y-84879523D01*
X126814285Y-84841428D01*
X126890476Y-84841428D01*
X127004761Y-84879523D01*
X127461904Y-85336666D01*
X127461904Y-84841428D01*
%TO.C,F1*%
X134903333Y-89802857D02*
X134636666Y-89802857D01*
X134636666Y-90221904D02*
X134636666Y-89421904D01*
X135017619Y-89421904D01*
X135741428Y-90221904D02*
X135284285Y-90221904D01*
X135512857Y-90221904D02*
X135512857Y-89421904D01*
X135436666Y-89536190D01*
X135360476Y-89612380D01*
X135284285Y-89650476D01*
%TO.C,J1*%
X123947904Y-81730166D02*
X124519333Y-81730166D01*
X124633619Y-81768261D01*
X124709809Y-81844452D01*
X124747904Y-81958738D01*
X124747904Y-82034928D01*
X124747904Y-80930166D02*
X124747904Y-81387309D01*
X124747904Y-81158738D02*
X123947904Y-81158738D01*
X124062190Y-81234928D01*
X124138380Y-81311119D01*
X124176476Y-81387309D01*
%TO.C,D1*%
X122719523Y-90691904D02*
X122719523Y-89891904D01*
X122910000Y-89891904D01*
X123024285Y-89930000D01*
X123100476Y-90006190D01*
X123138571Y-90082380D01*
X123176666Y-90234761D01*
X123176666Y-90349047D01*
X123138571Y-90501428D01*
X123100476Y-90577619D01*
X123024285Y-90653809D01*
X122910000Y-90691904D01*
X122719523Y-90691904D01*
X123938571Y-90691904D02*
X123481428Y-90691904D01*
X123710000Y-90691904D02*
X123710000Y-89891904D01*
X123633809Y-90006190D01*
X123557619Y-90082380D01*
X123481428Y-90120476D01*
%TO.C,J3*%
X120766666Y-79882380D02*
X120766666Y-80596666D01*
X120719047Y-80739523D01*
X120623809Y-80834761D01*
X120480952Y-80882380D01*
X120385714Y-80882380D01*
X121147619Y-79882380D02*
X121766666Y-79882380D01*
X121433333Y-80263333D01*
X121576190Y-80263333D01*
X121671428Y-80310952D01*
X121719047Y-80358571D01*
X121766666Y-80453809D01*
X121766666Y-80691904D01*
X121719047Y-80787142D01*
X121671428Y-80834761D01*
X121576190Y-80882380D01*
X121290476Y-80882380D01*
X121195238Y-80834761D01*
X121147619Y-80787142D01*
%TO.C,R1*%
X131006666Y-87081904D02*
X130740000Y-86700952D01*
X130549523Y-87081904D02*
X130549523Y-86281904D01*
X130854285Y-86281904D01*
X130930476Y-86320000D01*
X130968571Y-86358095D01*
X131006666Y-86434285D01*
X131006666Y-86548571D01*
X130968571Y-86624761D01*
X130930476Y-86662857D01*
X130854285Y-86700952D01*
X130549523Y-86700952D01*
X131768571Y-87081904D02*
X131311428Y-87081904D01*
X131540000Y-87081904D02*
X131540000Y-86281904D01*
X131463809Y-86396190D01*
X131387619Y-86472380D01*
X131311428Y-86510476D01*
%TO.C,J2*%
X137156666Y-93042380D02*
X137156666Y-93756666D01*
X137109047Y-93899523D01*
X137013809Y-93994761D01*
X136870952Y-94042380D01*
X136775714Y-94042380D01*
X137585238Y-93137619D02*
X137632857Y-93090000D01*
X137728095Y-93042380D01*
X137966190Y-93042380D01*
X138061428Y-93090000D01*
X138109047Y-93137619D01*
X138156666Y-93232857D01*
X138156666Y-93328095D01*
X138109047Y-93470952D01*
X137537619Y-94042380D01*
X138156666Y-94042380D01*
D11*
%TO.C,FB1*%
X125550000Y-87200378D02*
X125550000Y-87999622D01*
X124430000Y-87200378D02*
X124430000Y-87999622D01*
%TO.C,R2*%
X126720000Y-87116359D02*
X126720000Y-87423641D01*
X127480000Y-87116359D02*
X127480000Y-87423641D01*
%TO.C,F1*%
X131767936Y-91870000D02*
X132972064Y-91870000D01*
X131767936Y-90050000D02*
X132972064Y-90050000D01*
D12*
%TO.C,U1*%
X128290000Y-88780000D02*
G75*
G03*
X128290000Y-88780000I0J0D01*
G01*
D11*
%TO.C,D1*%
X124610000Y-89730000D02*
X126460000Y-89730000D01*
X124610000Y-90930000D02*
X126460000Y-90930000D01*
X126460000Y-90930000D02*
X126460000Y-89730000D01*
%TO.C,R1*%
X133093641Y-87100000D02*
X132786359Y-87100000D01*
X133093641Y-86340000D02*
X132786359Y-86340000D01*
%TD*%
%LPC*%
D13*
%TO.C,FB1*%
X124990000Y-86537500D03*
X124990000Y-88662500D03*
%TD*%
D14*
%TO.C,R2*%
X127100000Y-86760000D03*
X127100000Y-87780000D03*
%TD*%
D15*
%TO.C,F1*%
X130970000Y-90960000D03*
X133770000Y-90960000D03*
%TD*%
D16*
%TO.C,U1*%
X128290000Y-88165000D03*
D17*
X128790000Y-88165000D03*
D18*
X129290000Y-88165000D03*
D17*
X129790000Y-88165000D03*
X130290000Y-88165000D03*
X130290000Y-87395000D03*
X129790000Y-87395000D03*
D18*
X129290000Y-87395000D03*
D17*
X128790000Y-87395000D03*
X128290000Y-87395000D03*
%TD*%
D19*
%TO.C,J1*%
X126396000Y-83113500D03*
X132176000Y-83113500D03*
D20*
X132511000Y-84558500D03*
X131736000Y-84558500D03*
D21*
X130536000Y-84558500D03*
X129536000Y-84558500D03*
X129036000Y-84558500D03*
X128036000Y-84558500D03*
D20*
X126061000Y-84558500D03*
X126836000Y-84558500D03*
D21*
X127536000Y-84558500D03*
X128536000Y-84558500D03*
X130036000Y-84558500D03*
X131036000Y-84558500D03*
D22*
X133606000Y-79463500D03*
D23*
X133606000Y-83643500D03*
X124966000Y-83643500D03*
D22*
X124966000Y-79463500D03*
%TD*%
D24*
%TO.C,D1*%
X126010000Y-90330000D03*
X124610000Y-90330000D03*
%TD*%
D25*
%TO.C,J3*%
X121520000Y-83190000D03*
D26*
X122790000Y-83190000D03*
D25*
X121520000Y-85740000D03*
D26*
X122790000Y-85740000D03*
X122790000Y-88275000D03*
D25*
X121520000Y-88275000D03*
D27*
X122790000Y-90810000D03*
D28*
X121520000Y-90810000D03*
%TD*%
D29*
%TO.C,R1*%
X133450000Y-86720000D03*
X132430000Y-86720000D03*
%TD*%
D25*
%TO.C,J2*%
X137070000Y-90830000D03*
D26*
X135800000Y-90830000D03*
X135800000Y-88280000D03*
D25*
X137070000Y-88280000D03*
X137070000Y-85745000D03*
D26*
X135800000Y-85745000D03*
D30*
X137070000Y-83210000D03*
D27*
X135800000Y-83210000D03*
%TD*%
M02*
