M48
; DRILL file {KiCad 9.0.1} date 2025-04-29T12:12:16-0500
; FORMAT={-:-/ absolute / inch / decimal}
; #@! TF.CreationDate,2025-04-29T12:12:16-05:00
; #@! TF.GenerationSoftware,Kicad,Pcbnew,9.0.1
; #@! TF.FileFunction,Plated,1,2,PTH
FMAT,2
INCH
; #@! TA.AperFunction,Plated,PTH,ViaDrill
T1C0.0079
; #@! TA.AperFunction,Plated,PTH,ViaDrill
T2C0.0118
; #@! TA.AperFunction,Plated,PTH,ComponentDrill
T3C0.0236
; #@! TA.AperFunction,Plated,PTH,ComponentDrill
T4C0.0394
%
G90
G05
T1
X5.1437Y-3.5894
T2
X4.8791Y-3.324
X4.9471Y-3.3718
X5.0039Y-3.4921
X5.0272Y-3.5587
X5.0499Y-3.5165
X5.0795Y-3.501
X5.0898Y-3.2004
X5.0902Y-3.3992
X5.2531Y-3.3811
X5.289Y-3.1894
X5.2949Y-3.5209
T4
X4.8343Y-3.2752
X4.8343Y-3.3756
X4.8343Y-3.4754
X4.8343Y-3.5752
X5.3465Y-3.276
X5.3465Y-3.3758
X5.3465Y-3.4756
X5.3465Y-3.576
T3
G00X4.9199Y-3.1403
M15
G01X4.9199Y-3.1167
M16
G05
G00X4.9199Y-3.3147
M15
G01X4.9199Y-3.2714
M16
G05
G00X5.2601Y-3.1403
M15
G01X5.2601Y-3.1167
M16
G05
G00X5.2601Y-3.3147
M15
G01X5.2601Y-3.2714
M16
G05
M30
